<?xml version="1.0" encoding="utf-8"?>
<!-- Generator: Adobe Illustrator 23.0.3, SVG Export Plug-In . SVG Version: 6.00 Build 0)  -->
<svg version="1.1" id="Layer_1" xmlns="http://www.w3.org/2000/svg" xmlns:xlink="http://www.w3.org/1999/xlink" x="0px" y="0px"
	 viewBox="0 0 51 32" style="enable-background:new 0 0 51 32;" xml:space="preserve">
<style type="text/css">
	.st0{fill:none;}
	.st1{fill:#016FD0;}
</style>
<polygon class="st0" points="11.9,20.2 11.9,21.3 15.1,21.3 15.1,22.6 11.9,22.6 11.9,23.8 15.5,23.8 17.2,22 15.6,20.2 "/>
<polygon class="st0" points="21.3,24.5 21.3,19.6 19.1,22 "/>
<path class="st0" d="M2.4,15.4c0.4-0.9,0.2-0.5,0.6-1.4h1.7c0.4,0.9,0.2,0.5,0.6,1.4h4.7v-1c0.2,0.4,0.1,0.2,0.5,1h2.6
	c0.2-0.5,0.2-0.5,0.5-1v1h12v-2.2c0.6,0,0.7,0,0.9,0c0,0,0,1,0,2.2h5.9v-0.8c0.7,0.5,1.5,0.8,2.6,0.8h2.4c0.4-0.9,0.2-0.5,0.6-1.4
	h1.7c0.6,1.3,0,0,0.6,1.4h4.7v-1.9c1,1.7,0.7,1.1,1.2,1.9h3.7V7.2H46v1.6c-1.1-1.8-0.6-0.9-1-1.6h-3.8v1.8c-0.5-1.3-0.4-1-0.8-1.8
	h-2.9c0,0-0.2,0-0.2,0h-2.4c-1.1,0-2,0.3-2.7,0.8V7.2h-3.5v0.5c-1-0.5-1.8-0.5-5.7-0.5c0,0-1,0-1,0h-9.1c-0.2,0.5-0.6,1.5-1.1,2.7
	c-0.2-0.5-1-2.1-1.2-2.7H6.4v1.9c-0.7-1.5-0.4-1-0.8-1.9H2C1.7,7.9,0.8,10,0,12v17c0,0.1,0,0.1,0,0.2V15.4H2.4z M34.8,8.4h1.4v1.3
	c-1.5,0-2.9-0.4-2.9,1.7c0,1,0.2,1.8,1.4,1.8h0.7l2.1-4.8h2.2l2.5,5.8V8.4h2.2l2.6,4.3V8.4h1.5v6.1h-2.1l-2.8-4.6v4.6h-3l-0.6-1.4
	h-3l-0.6,1.4h-1.7c-2,0-2.9-1-2.9-3C31.8,9.4,32.8,8.4,34.8,8.4z M29.6,8.4h1.5v6.1h-1.5V8.4z M22.9,8.4l3.5,0
	c1.2,0,2.4,0.2,2.4,1.6c0,0.7-0.4,1.4-1,1.7c0.8,0.3,1,0.8,1,1.6v1.2h-1.5c0-1.3,0.3-2.2-1.3-2.2h-1.6v2.2h-1.5V8.4z M17,8.4h4.9
	v1.3h-3.4v1.1h3.3V12h-3.3v1.2h3.4v1.3H17V8.4z M2.7,8.4h2.2l2.5,5.8V8.4h2.4l1.9,4.2l1.7-4.2h2.4v6.1h-1.5V9.7l-2.1,4.8H11L8.9,9.7
	v4.8h-3l-0.6-1.4H2.3l-0.6,1.4H0.1L2.7,8.4z"/>
<polygon class="st0" points="38.6,9.4 37.5,11.9 39.6,11.9 "/>
<polygon class="st0" points="3.8,9.4 2.8,11.9 4.8,11.9 "/>
<path class="st0" d="M27.2,10.3c0-0.6-0.5-0.7-0.9-0.7h-1.9V11h1.8C26.7,11,27.2,10.9,27.2,10.3z"/>
<path class="st0" d="M24.7,20.2h-1.9v1.6h1.9c0.5,0,0.9-0.2,0.9-0.8C25.6,20.4,25.2,20.2,24.7,20.2z"/>
<path class="st0" d="M31.2,20.2h-1.9v1.4h1.8c0.5,0,1-0.1,1-0.7C32.2,20.3,31.7,20.2,31.2,20.2z"/>
<path class="st0" d="M51,3c0-0.1,0-0.2,0-0.3v15.1c-3.3,0-3.9-0.1-4.8,0.4v-0.4c-4,0-4.7-0.2-5.7,0.5v-0.5h-6.9v0.5
	c-1-0.6-1.9-0.5-6.7-0.5v0.5c-0.6-0.3-1.3-0.5-2.2-0.5h-5.1c-0.3,0.3-1.1,1.2-1.4,1.5c-1.1-1.2-0.9-1-1.4-1.5H9.4v8.2h7.3
	c0.3-0.3,1.1-1.2,1.4-1.5c1.1,1.3,0.9,1,1.4,1.5h4.3c0-1.3,0-0.7,0-2c1,0,2.2,0,3-0.5c0,1.2,0,1.5,0,2.6h3.5c0-1.6,0-0.7,0-2.2
	c0.5,0,0.7,0,0.8,0c0,0.1,0,0,0,2.2c13.5,0,12.9,0.1,13.9-0.4v0.4c3.1,0,4.8,0.2,6-0.5v3.7c0,0,0,0,0-0.1V3z M22.8,23l0,2.1H20
	l-1.8-2l-1.9,2h-5.8l0-6.1h5.9l1.8,2l1.9-2h4.7c1.4,0,2.5,0.5,2.5,2C27.2,23.4,24.5,23,22.8,23z M33.7,23.9l0,1.2h-1.5l0-1
	c0-1-0.3-1.2-1.3-1.2h-1.6l0,2.2h-1.5l0-6.1h3.5c1.2,0,2.4,0.2,2.4,1.7c0,0.7-0.4,1.4-1.1,1.6C33.5,22.5,33.7,23.1,33.7,23.9z
	 M39.5,20.2H36v1.1h3.3v1.2H36v1.2l3.4,0l0,1.3h-4.9l0-6.1h4.9V20.2z M43.2,25.1h-2.8l0-1.3h2.8c0.4,0,0.8-0.1,0.8-0.6
	c0-1.3-3.8,0.5-3.8-2.4c0-1.2,0.9-1.8,2.1-1.8h2.9v1.3h-2.7c-0.4,0-0.8,0.1-0.8,0.6c0,1.3,3.8-0.6,3.8,2.3
	C45.5,24.6,44.5,25.1,43.2,25.1z M50.9,20.2h-2.7c-0.4,0-0.8,0.1-0.8,0.6c0,1.1,2.5,0,3.5,1.2v2.3c-0.4,0.6-1.2,0.8-2,0.8h-2.8
	l0-1.3h2.8c0.4,0,0.7-0.1,0.7-0.6c0-1.3-3.8,0.5-3.8-2.4c0-1.2,1-1.8,2.1-1.8h2.9V20.2z"/>
<path class="st1" d="M45,25.9v-0.4c-1,0.5-0.3,0.4-13.9,0.4c0-2.2,0-2.1,0-2.2c-0.2,0-0.3,0-0.8,0c0,1.6,0,0.6,0,2.2h-3.5
	c0-1.1,0-1.4,0-2.6c-0.9,0.5-2,0.6-3,0.5c0,1.3,0,0.7,0,2h-4.3c-0.5-0.5-0.2-0.3-1.4-1.5c-0.3,0.3-1.1,1.2-1.4,1.5H9.4v-8.2h7.4
	c0.4,0.5,0.2,0.3,1.4,1.5c0.3-0.3,1.1-1.2,1.4-1.5h5.1c0.9,0,1.6,0.2,2.2,0.5v-0.5c4.8,0,5.7-0.1,6.7,0.5v-0.5h6.9v0.5
	c1-0.6,1.7-0.5,5.7-0.5v0.4c0.9-0.5,1.5-0.5,4.8-0.4V2.7C50.8,1.2,49.6,0,48,0H3C1.4,0,0,1.4,0,3v9C0.8,10,1.7,7.9,2,7.2h3.5
	c0.4,0.9,0.1,0.3,0.8,1.9V7.2h4.1c0.3,0.5,1,2.1,1.2,2.7c0.5-1.2,0.9-2.1,1.1-2.7h9.1c0,0,1,0,1,0c3.9,0,4.7-0.1,5.7,0.5V7.2h3.5V8
	c0.7-0.5,1.6-0.8,2.7-0.8h2.4c0,0,0.2,0,0.2,0h2.9c0.4,0.9,0.2,0.5,0.8,1.8V7.2H45c0.4,0.7-0.1-0.2,1,1.6V7.2h3.5v8.1h-3.7
	c-0.5-0.8-0.1-0.2-1.2-1.9v1.9H40c-0.6-1.3,0,0-0.6-1.4h-1.7c-0.4,0.9-0.2,0.5-0.6,1.4h-2.4c-1.1,0-2-0.3-2.6-0.8v0.8h-5.9
	c0-1.2,0-2.2,0-2.2c-0.2,0-0.3,0-0.9,0v2.2h-12v-1c-0.2,0.5-0.2,0.5-0.5,1h-2.6c-0.4-0.8-0.3-0.6-0.5-1v1H5.2
	C4.8,14.5,5,14.9,4.6,14H2.9c-0.4,0.9-0.2,0.5-0.6,1.4H0v13.8C0.1,30.8,1.5,32,3,32h45c1.7,0,3-1.4,3-2.9v-3.7
	C49.9,26.1,48.1,25.9,45,25.9z"/>
<rect x="29.6" y="8.4" class="st1" width="1.5" height="6.1"/>
<path class="st1" d="M24.4,12.3h1.6c1.6,0,1.3,0.9,1.3,2.2h1.5v-1.2c0-0.8-0.1-1.3-1-1.6c0.7-0.3,1-0.9,1-1.7c0-1.5-1.2-1.6-2.4-1.6
	l-3.5,0v6.1h1.5V12.3z M24.4,9.7h1.9c0.5,0,0.9,0.1,0.9,0.7c0,0.6-0.5,0.7-1,0.7h-1.8V9.7z"/>
<polygon class="st1" points="21.9,13.3 18.4,13.3 18.4,12 21.8,12 21.8,10.8 18.4,10.8 18.4,9.7 21.9,9.7 21.9,8.4 17,8.4 17,14.5 
	21.9,14.5 "/>
<path class="st1" d="M2.3,13.2h3.1l0.6,1.4h3V9.7l2.1,4.8h1.3l2.1-4.8v4.8h1.5V8.4h-2.4l-1.7,4.2L9.8,8.4H7.4v5.8L4.9,8.4H2.7
	l-2.6,6.1h1.6L2.3,13.2z M3.8,9.4l1,2.4h-2L3.8,9.4z"/>
<path class="st1" d="M24.7,19H20l-1.9,2l-1.8-2h-5.9l0,6.1h5.8l1.9-2l1.8,2h2.8l0-2.1c1.7,0,4.4,0.4,4.4-2.1
	C27.2,19.4,26.1,19,24.7,19z M15.5,23.8h-3.6v-1.2h3.2v-1.2h-3.2v-1.1h3.7l1.6,1.8L15.5,23.8z M21.3,24.5L19.1,22l2.2-2.4V24.5z
	 M24.7,21.8h-1.9v-1.6h1.9c0.5,0,0.9,0.2,0.9,0.7C25.6,21.5,25.2,21.8,24.7,21.8z"/>
<path class="st1" d="M34.8,14.5h1.7l0.6-1.4h3l0.6,1.4h3V9.9l2.8,4.6h2.1V8.4H47v4.3l-2.6-4.3h-2.2v5.8l-2.5-5.8h-2.2l-2.1,4.8h-0.7
	c-1.2,0-1.4-0.7-1.4-1.8c0-2.1,1.4-1.8,2.9-1.7V8.4h-1.4c-2.1,0-3,1.1-3,3.1C31.8,13.5,32.7,14.5,34.8,14.5z M38.6,9.4l1,2.4h-2
	L38.6,9.4z"/>
<path class="st1" d="M41.7,20.8c0-0.5,0.4-0.6,0.8-0.6h2.7v-1.3h-2.9c-1.1,0-2.1,0.6-2.1,1.8c0,2.9,3.8,1.1,3.8,2.4
	c0,0.5-0.4,0.6-0.8,0.6h-2.8l0,1.3h2.8c1.3,0,2.3-0.5,2.3-1.9C45.5,20.2,41.7,22.1,41.7,20.8z"/>
<path class="st1" d="M33.8,20.6c0-1.5-1.2-1.7-2.4-1.7h-3.5l0,6.1h1.5l0-2.2h1.6c1,0,1.3,0.2,1.3,1.2l0,1h1.5l0-1.2
	c0-0.8-0.2-1.3-1-1.6C33.4,22,33.8,21.3,33.8,20.6z M31.2,21.6h-1.8v-1.4h1.9c0.5,0,0.9,0.1,0.9,0.7C32.2,21.5,31.7,21.6,31.2,21.6z
	"/>
<polygon class="st1" points="34.6,25.1 39.4,25.1 39.5,23.8 36,23.8 36,22.6 39.4,22.6 39.4,21.3 36,21.3 36,20.2 39.5,20.2 
	39.5,19 34.6,19 "/>
<path class="st1" d="M45.9,20.8c0,2.9,3.8,1.1,3.8,2.4c0,0.5-0.4,0.6-0.7,0.6h-2.8l0,1.3h2.8c0.7,0,1.6-0.2,2-0.8V22
	c-0.9-1.2-3.5-0.1-3.5-1.2c0-0.5,0.4-0.6,0.8-0.6h2.7V19H48C46.9,19,45.9,19.5,45.9,20.8z"/>
</svg>
