<?xml version="1.0" encoding="utf-8"?>
<!-- Generator: Adobe Illustrator 23.0.3, SVG Export Plug-In . SVG Version: 6.00 Build 0)  -->
<svg version="1.1" id="Layer_1" xmlns="http://www.w3.org/2000/svg" xmlns:xlink="http://www.w3.org/1999/xlink" x="0px" y="0px"
	 viewBox="0 0 1920 409.9" style="enable-background:new 0 0 1920 409.9;" xml:space="preserve">
<style type="text/css">
	.st0{opacity:0.15;}
	.st1{fill:none;stroke:#1B86C8;stroke-width:10;stroke-miterlimit:10;}
</style>
<g class="st0">
	<path class="st1" d="M61.9,197.1c0-33.6,10.3-61.8,31-84.8c20.7-23,47.6-34.4,80.7-34.4c3.9,0,8.3,0.2,13.2,0.6
		c4.9,0.4,9.8,1.2,14.8,2.3c10.6,2.2,20.2,5.9,28.9,11.2c8.7,5.3,13,12.7,13,22.3c0,5.8-1.8,10.9-5.5,15.3
		c-3.7,4.3-8.6,6.5-14.6,6.5c-1.3,0-2.5-0.1-3.7-0.3c-1.2-0.2-2.3-0.4-3.4-0.6c-1.9-0.6-4-1.4-6-2.1c-2.1-0.8-4.2-1.7-6.3-2.8
		c-3.7-1.3-7.9-2.5-12.7-3.7c-4.8-1.2-10.6-1.8-17.5-1.8c-20.1,0-35.4,7.3-45.6,21.9c-10.3,14.6-15.4,31.9-15.4,51.8
		c0,19.3,5.2,36.1,15.6,50.4c10.4,14.3,25.6,21.4,45.5,21.4c6.9,0,12.9-0.7,17.9-2.1c5-1.4,9.4-3,13.3-4.7c2.8-1.3,5.5-2.5,8.1-3.7
		c2.6-1.2,5.1-2,7.5-2.4c0.9-0.2,1.7-0.4,2.4-0.5c0.8-0.1,1.6-0.2,2.4-0.2c5,0,9,1.4,12.2,4.1c3.1,2.7,5.5,5.8,7,9.3
		c0.9,1.5,1.5,3,1.8,4.5c0.3,1.5,0.5,2.9,0.5,4.2c0,10.4-4.5,18.3-13.5,23.7c-9,5.4-18.8,9.1-29.4,11c-5.6,1.3-11,2.2-16.2,2.6
		c-5.2,0.4-9.9,0.6-14,0.6c-32.9,0-59.8-11.5-80.6-34.4c-20.8-23-31.2-51.2-31.2-84.8V197.1z"/>
	<path class="st1" d="M287,288.7V88.6c0-7.6,2.2-13.8,6.7-18.5c4.4-4.8,10-7.1,16.7-7.1c6.9,0,12.6,2.4,16.9,7.1
		c4.3,4.8,6.5,11,6.5,18.8v199.8c0,8-2.2,14.4-6.5,19c-4.3,4.7-10,7-16.9,7c-6.7,0-12.3-2.3-16.7-7c-4.4-4.7-6.7-10.9-6.7-18.7
		V288.7z"/>
	<path class="st1" d="M539.1,168.3v115.9c0,1.7,0,3.5,0,5.2s-0.1,3.6-0.3,5.5c-0.6,5-2.4,9.5-5.4,13.7s-8.5,6.2-16.7,6.2
		c-6.7,0-11.7-1.7-14.9-5.2s-5.7-8.2-7.5-14.3c-6.1,7.1-12.8,12.5-20.1,16.1c-7.4,3.6-15.5,5.4-24.4,5.4c-21.9,0-40.2-8.4-55.1-25.2
		c-14.8-16.8-22.3-38.3-22.3-64.6c0-25.8,7.5-47.4,22.6-64.8c15.1-17.4,33.3-26,54.7-26c8.7,0,16.9,1.8,24.9,5.3
		c7.9,3.5,14.5,9,19.7,16.5c0.6-5.7,3.1-10.5,7.5-14.2c4.3-3.7,9.3-5.6,14.9-5.6c8.2,0,13.8,2.1,16.7,6.4s4.7,8.8,5.4,13.8
		c0.2,2,0.3,3.8,0.3,5.5c0,1.7,0,3.4,0,4.9V168.3z M419.2,226.7c0,1.1,0,2.1,0,3.1s0.1,2,0.3,3.1c0.9,10.2,4.3,19.6,10.2,28.3
		c6,8.7,14.8,13,26.5,13c11.3,0,19.8-4.3,25.7-13c5.8-8.7,9.2-18.1,10.1-28.3c0.2-1.1,0.3-2.1,0.3-3.1s0-1.9,0-2.8
		c0-1.1-0.1-2.2-0.2-3.4c-0.1-1.2-0.2-2.4-0.2-3.7c-1.1-10.2-4.5-19.5-10.4-27.9c-5.8-8.4-14.3-12.7-25.3-12.7
		c-11.5,0-20.2,4.2-26.2,12.7c-6,8.4-9.5,17.8-10.6,27.9c0,1.3-0.1,2.5-0.2,3.7c-0.1,1.2-0.2,2.3-0.2,3.4V226.7z"/>
	<path class="st1" d="M618.7,291l-39.6-112.3c-1.3-3.5-2.3-6.6-3.1-9.4c-0.8-2.8-1.2-5.5-1.5-8.1c-0.2-0.6-0.3-1.4-0.3-2.1
		c0-0.8,0-1.5,0-2.1c0-5.2,2.2-9.7,6.7-13.3c4.4-3.7,10-5.5,16.7-5.5c5.6,0,10.4,1.7,14.3,5c3.9,3.4,6.5,7.9,7.8,13.5l27,89h0.6
		l27.3-87.4c1.7-6.1,4.4-10.9,8.1-14.6c3.7-3.7,8.9-5.5,15.6-5.5c6.9,0,12.2,1.8,15.8,5.5c3.6,3.7,6.2,8.7,8,14.9l27.3,87.1h0.6
		l27-89.3c1.3-5.4,3.9-9.8,7.8-13.2c3.9-3.4,8.7-5,14.3-5c6.9,0,12.6,2,16.9,6c4.3,4,6.5,9.6,6.5,16.8c0,2.6-0.5,5.3-1.5,8
		s-2,5.9-3.1,9.6l-40,112.6c-2.4,6.9-5.8,12.6-10.2,17.1c-4.4,4.4-10.5,6.7-18,6.7c-7.1,0-12.9-1.9-17.2-5.7
		c-4.3-3.8-7.6-9-9.7-15.8l-24-75.7H698l-24,75.4c-2.2,6.9-5.4,12.3-9.7,16.1c-4.3,3.8-10.1,5.7-17.2,5.7c-7.6,0-13.6-2.2-18-6.7
		c-4.4-4.4-7.9-10-10.2-16.8V291z"/>
	<path class="st1" d="M1079.3,185.4l34.1,37.7l12.7-14.6c1.5-1.5,3-3,4.4-4.5c1.4-1.5,2.8-2.8,4.1-3.9c2.4-1.9,4.9-3.5,7.5-4.5
		c2.6-1.1,5.5-1.6,8.8-1.6c4.8,0,8.9,1.8,12.5,5.5c3.6,3.7,5.4,8.7,5.4,14.9c0,4.3-1.7,9.1-5,14.3c-3.4,5.2-7.6,10.7-12.8,16.6
		l-8.1,8.4l22.1,25c0.7,1.1,1.2,1.9,1.8,2.6c0.5,0.6,1.1,1.3,1.8,1.9c1.1,1.7,1.9,3.5,2.6,5.4c0.7,1.8,1,4.1,1,6.7
		c0,5.4-2.2,10.3-6.7,14.8c-4.4,4.4-9.8,6.7-16.1,6.7c-3.7,0-6.9-0.6-9.6-1.8c-2.7-1.2-5.3-3-7.6-5.4l-22.4-23.7
		c-10.6,9.5-21.6,17.1-32.8,22.6c-11.3,5.5-24.2,8.3-38.7,8.3c-21.7,0-40.3-6-56-17.9c-15.7-11.9-23.6-29.2-23.6-52
		c0-16,4.9-29.9,14.6-41.7c9.7-11.8,21.2-21.4,34.4-28.8c-6.3-6.3-11.4-12.9-15.4-19.8c-4-6.9-6-14.9-6-24
		c0-17.8,6.7-31.1,20.1-40.1c13.4-9,28.3-13.8,44.5-14.5c0.7,0,1.2,0,1.8,0c0.5,0,1.1,0,1.8,0c2.6,0,5.2,0.1,7.8,0.3
		c2.6,0.2,5.2,0.6,7.8,1.3c12.8,2.4,24.4,7.6,34.9,15.8c10.5,8.1,15.8,19.3,15.8,33.6c0,13-4.3,24.4-12.8,34.1
		c-8.6,9.7-18,17.3-28.4,22.7V185.4z M1080.3,254.9l-47.1-52.3c-7.4,5-13.9,10.5-19.5,16.6c-5.6,6.1-8.4,13.8-8.4,23.1
		c0,10.2,3.1,18,9.4,23.6c6.3,5.5,14.4,8.3,24.4,8.3c7.6,0,14.2-1.2,19.8-3.7c5.6-2.5,11.2-6,16.6-10.6c0.6-0.6,1.4-1.4,2.3-2.1
		c0.9-0.8,1.7-1.6,2.6-2.4V254.9z M1075.8,133.4c0-5.2-1.5-9.2-4.4-12c-2.9-2.8-6.2-4.7-9.9-5.5c-1.3-0.4-2.5-0.7-3.7-0.8
		c-1.2-0.1-2.3-0.2-3.4-0.2c-0.9,0-1.7,0.1-2.6,0.2c-0.9,0.1-1.6,0.3-2.3,0.5c-3.7,1.1-7,3-10.1,5.7c-3,2.7-4.5,6-4.5,9.9
		c0,1.7,0.2,3.4,0.5,5c0.3,1.6,0.8,3.2,1.5,4.7c1.3,2.6,3.2,5.3,5.7,8.1c2.5,2.8,5.7,6.2,9.6,10.1c1.1-0.6,2.3-1.3,3.6-1.9
		c1.3-0.6,2.5-1.3,3.6-1.9c4.1-2.6,7.9-5.7,11.4-9.3c3.5-3.6,5.2-7.6,5.2-12.2V133.4z"/>
	<path class="st1" d="M1320.1,289.4V106.8c0-6.5,2.2-12.3,6.7-17.4c4.4-5.1,10.7-7.6,18.7-7.6l83.2-0.3c7.1,0.2,12.6,2.7,16.2,7.3
		c3.7,4.7,5.5,9.8,5.5,15.4c0,0.2,0,0.4,0,0.5c0,0.1,0,0.3,0,0.5c-0.2,5.4-2.1,10.3-5.7,14.8c-3.6,4.4-8.9,6.7-16.1,6.7l-59.8-0.3
		v47.4h50.4c7.8,0.2,13.6,2.6,17.5,7.1s5.8,9.6,5.8,15.3c0,5.6-1.9,10.8-5.8,15.6c-3.9,4.8-9.7,7.1-17.5,7.1h-50.4v70.6
		c0,8.2-2.3,14.5-7,18.8c-4.7,4.3-10.5,6.5-17.4,6.5c-6.9,0-12.7-2.2-17.4-6.5c-4.7-4.3-7-10.5-7-18.5V289.4z"/>
	<path class="st1" d="M1482.5,248.3v-84.6c0-7.6,2.2-13.8,6.7-18.5c4.4-4.8,10-7.2,16.7-7.2c6.9,0,12.6,2.4,16.9,7.2
		c4.3,4.8,6.5,11.1,6.5,18.9v83.4c0,10,3.1,17.6,9.3,22.8c6.2,5.2,13.2,7.8,21,7.8c7.8,0,14.8-2.6,21-7.8c6.2-5.2,9.3-12.7,9.3-22.5
		v-84c0-7.6,2.2-13.8,6.7-18.6c4.4-4.8,10-7.2,16.7-7.2c6.9,0,12.6,2.4,16.9,7.2c4.3,4.8,6.5,11.1,6.5,18.9v84.3
		c0,21-6.7,37.7-20,50c-13.3,12.3-32.3,18.4-57,18.4c-24.7,0-43.7-6.1-57-18.4c-13.3-12.3-20-28.8-20-49.6V248.3z"/>
	<path class="st1" d="M1682.6,288.7v-125c0-7.6,2.2-13.8,6.7-18.5c4.4-4.8,10-7.2,16.7-7.2c6.1,0,10.9,1.5,14.6,4.5
		c3.7,3,6,7.3,6.8,12.7c4.5-6.3,10.4-11,17.7-14.3c7.3-3.2,16.4-4.9,27.5-4.9c18.4,0,33.7,5.5,45.8,16.6
		c12.1,11.1,18.2,26.6,18.2,46.5v89.5c0,8-2.2,14.4-6.5,19c-4.3,4.7-10,7-16.9,7c-6.7,0-12.3-2.3-16.7-7c-4.4-4.7-6.7-10.9-6.7-18.7
		v-81.9c0-10.6-3-18.6-8.9-23.9c-6-5.3-13.2-8-21.6-8c-9.5,0-16.9,3.1-22.1,9.3c-5.2,6.2-7.8,13.8-7.8,22.9v81.2
		c0,8-2.2,14.4-6.5,19c-4.3,4.7-10,7-16.9,7c-6.7,0-12.3-2.3-16.7-7c-4.4-4.7-6.7-10.9-6.7-18.7V288.7z"/>
</g>
</svg>
