<?xml version="1.0" encoding="utf-8"?>
<!-- Generator: Adobe Illustrator 23.0.3, SVG Export Plug-In . SVG Version: 6.00 Build 0)  -->
<svg version="1.1" id="Layer_1" xmlns="http://www.w3.org/2000/svg" xmlns:xlink="http://www.w3.org/1999/xlink" x="0px" y="0px"
	 viewBox="0 0 1920 409.9" style="enable-background:new 0 0 1920 409.9;" xml:space="preserve">
<style type="text/css">
	.st0{opacity:0.1;}
	.st1{fill:none;stroke:#FFFFFF;stroke-width:10;stroke-miterlimit:10;}
</style>
<g class="st0">
	<path class="st1" d="M99.9,203.7c0-36.2,11.1-66.6,33.4-91.3s51.3-37.1,87-37.1c4.2,0,8.9,0.2,14.2,0.7s10.6,1.3,15.9,2.5
		c11.4,2.3,21.8,6.4,31.1,12.1c9.3,5.7,14,13.7,14,24c0,6.3-2,11.8-5.9,16.4c-4,4.7-9.2,7-15.7,7c-1.4,0-2.7-0.1-4-0.4
		c-1.3-0.2-2.5-0.5-3.7-0.7c-2.1-0.7-4.3-1.5-6.5-2.3s-4.5-1.8-6.8-3c-4-1.4-8.5-2.7-13.6-4s-11.4-1.9-18.9-1.9
		c-21.7,0-38.1,7.9-49.2,23.6s-16.6,34.4-16.6,55.8c0,20.8,5.6,38.8,16.8,54.2s27.5,23.1,49,23.1c7.5,0,13.9-0.8,19.2-2.3
		c5.4-1.5,10.1-3.2,14.3-5.1c3-1.4,5.9-2.7,8.7-4s5.5-2.2,8-2.6c0.9-0.2,1.8-0.4,2.6-0.5c0.8-0.1,1.7-0.2,2.6-0.2
		c5.4,0,9.7,1.5,13.1,4.4s5.9,6.2,7.5,10c0.9,1.6,1.6,3.3,1.9,4.9c0.4,1.6,0.5,3.1,0.5,4.5c0,11.2-4.8,19.7-14.5,25.5
		s-20.2,9.8-31.7,11.9c-6.1,1.4-11.9,2.3-17.5,2.8s-10.6,0.7-15,0.7c-35.5,0-64.4-12.4-86.8-37.1S99.7,240.1,99.7,204v-0.3H99.9z"/>
	<path class="st1" d="M321.4,302.4V86.8c0-8.2,2.4-14.8,7.2-19.9c4.8-5.1,10.8-7.7,18-7.7c7.5,0,13.5,2.6,18.2,7.7s7,11.9,7,20.3
		v215.2c0,8.6-2.3,15.5-7,20.5s-10.7,7.5-18.2,7.5c-7.2,0-13.2-2.5-18-7.5s-7.2-11.7-7.2-20.1V302.4z"/>
	<path class="st1" d="M572,172.6v124.8c0,1.9,0,3.7,0,5.6s-0.1,3.9-0.3,6c-0.7,5.4-2.6,10.3-5.8,14.7s-9.2,6.7-18,6.7
		c-7.2,0-12.6-1.9-16.1-5.6s-6.2-8.9-8-15.4c-6.5,7.7-13.8,13.5-21.7,17.3c-7.9,3.8-16.7,5.8-26.2,5.8c-23.6,0-43.3-9.1-59.3-27.2
		s-24-41.3-24-69.6c0-27.8,8.1-51.1,24.3-69.8c16.2-18.7,35.9-28,59-28c9.3,0,18.3,1.9,26.8,5.7s15.6,9.7,21.2,17.8
		c0.7-6.2,3.4-11.3,8-15.3c4.7-4,10-6,16.1-6c8.9,0,14.9,2.3,18,6.8c3.1,4.6,5.1,9.5,5.8,14.9c0.2,2.1,0.3,4.1,0.3,6s0,3.6,0,5.3
		L572,172.6L572,172.6z M442.8,235.6c0,1.2,0,2.3,0,3.3s0.1,2.2,0.4,3.3c0.9,11,4.6,21.1,11,30.4s15.9,14,28.5,14
		c12.1,0,21.3-4.7,27.6-14c6.3-9.3,9.9-19.5,10.8-30.4c0.2-1.2,0.4-2.3,0.4-3.3c0-1.1,0-2,0-3c0-1.2-0.1-2.4-0.2-3.7
		c-0.1-1.3-0.2-2.6-0.2-4c-1.2-11-4.9-21-11.2-30.1s-15.4-13.6-27.3-13.6c-12.4,0-21.8,4.5-28.2,13.6c-6.4,9.1-10.2,19.1-11.4,30.1
		c0,1.4-0.1,2.7-0.2,4s-0.2,2.5-0.2,3.7v-0.3H442.8z"/>
	<path class="st1" d="M636.7,304.8l-42.7-121c-1.4-3.7-2.5-7.1-3.3-10.2c-0.8-3-1.3-6-1.6-8.8c-0.2-0.7-0.4-1.5-0.4-2.3s0-1.6,0-2.3
		c0-5.6,2.4-10.4,7.2-14.4s10.8-6,18-6c6.1,0,11.2,1.8,15.4,5.4c4.2,3.6,7,8.5,8.4,14.5l29,95.9h0.7l29.4-94.1
		c1.9-6.5,4.8-11.8,8.7-15.7c4-4,9.6-5.9,16.8-5.9c7.5,0,13.1,2,17,5.9c3.8,4,6.7,9.3,8.6,16.1l29.4,93.8h0.7l29-96.2
		c1.4-5.8,4.2-10.6,8.4-14.2c4.2-3.6,9.3-5.4,15.4-5.4c7.5,0,13.5,2.2,18.2,6.5s7,10.3,7,18.1c0,2.8-0.5,5.7-1.6,8.6
		c-1.1,2.9-2.2,6.4-3.3,10.3l-43,121.3c-2.6,7.5-6.2,13.6-11,18.4s-11.3,7.2-19.4,7.2c-7.7,0-13.9-2-18.5-6.1
		c-4.7-4.1-8.2-9.7-10.5-17l-25.9-81.5h-0.7L696.2,307c-2.3,7.5-5.8,13.2-10.5,17.3c-4.7,4.1-10.8,6.1-18.5,6.1
		c-8.2,0-14.6-2.4-19.4-7.2c-4.8-4.8-8.5-10.8-11-18.1L636.7,304.8L636.7,304.8z"/>
	<path class="st1" d="M1091,191.1l36.7,40.6l13.6-15.7c1.6-1.6,3.2-3.3,4.7-4.9c1.5-1.6,3-3,4.4-4.2c2.6-2.1,5.3-3.7,8.1-4.9
		c2.8-1.2,5.9-1.8,9.4-1.8c5.1,0,9.6,2,13.5,5.9c3.8,4,5.8,9.3,5.8,16.1c0,4.7-1.8,9.8-5.4,15.4c-3.6,5.6-8.2,11.5-13.8,17.8
		l-8.8,9.1l23.8,26.9c0.7,1.2,1.3,2.1,1.9,2.8c0.6,0.7,1.2,1.4,1.9,2.1c1.2,1.9,2.1,3.8,2.8,5.8c0.7,2,1.1,4.4,1.1,7.2
		c0,5.8-2.4,11.1-7.2,15.9c-4.8,4.8-10.6,7.2-17.3,7.2c-4,0-7.4-0.6-10.3-1.9s-5.7-3.2-8.2-5.8l-24.1-25.5
		c-11.4,10.3-23.2,18.4-35.3,24.3c-12.1,5.9-26,8.9-41.6,8.9c-23.3,0-43.5-6.4-60.4-19.2c-16.9-12.8-25.4-31.5-25.4-56
		c0-17.3,5.3-32.3,15.7-45c10.5-12.7,22.9-23,37.1-31c-6.8-6.8-12.3-13.9-16.6-21.3c-4.3-7.5-6.5-16.1-6.5-25.9
		c0-19.1,7.2-33.5,21.7-43.2s30.4-14.9,47.9-15.6c0.7,0,1.3,0,1.9,0s1.2,0,1.9,0c2.8,0,5.6,0.1,8.4,0.4c2.8,0.2,5.6,0.7,8.4,1.4
		c13.8,2.6,26.3,8.2,37.6,17c11.3,8.7,17,20.8,17,36.2c0,14-4.6,26.2-13.8,36.7c-9.2,10.5-19.4,18.7-30.6,24.5V191.1z M1092,266
		l-50.7-56.3c-7.9,5.4-14.9,11.3-21,17.8s-9.1,14.8-9.1,24.8c0,11,3.4,19.4,10.2,25.4c6.8,5.9,15.5,8.9,26.2,8.9
		c8.2,0,15.3-1.3,21.3-4c6.1-2.7,12-6.5,17.8-11.4c0.7-0.7,1.5-1.5,2.5-2.3c0.9-0.8,1.9-1.7,2.8-2.6L1092,266L1092,266z
		 M1087.1,135.1c0-5.6-1.6-9.9-4.7-12.9c-3.2-3-6.7-5-10.7-5.9c-1.4-0.5-2.7-0.8-4-0.9s-2.5-0.2-3.7-0.2c-0.9,0-1.9,0.1-2.8,0.2
		s-1.7,0.3-2.4,0.5c-4,1.2-7.6,3.2-10.8,6.1c-3.3,2.9-4.9,6.5-4.9,10.7c0,1.9,0.2,3.7,0.5,5.4s0.9,3.4,1.6,5.1
		c1.4,2.8,3.4,5.7,6.1,8.7s6.1,6.6,10.3,10.8c1.2-0.7,2.4-1.4,3.8-2.1c1.4-0.7,2.7-1.4,3.8-2.1c4.4-2.8,8.5-6.1,12.3-10
		c3.7-3.9,5.6-8.2,5.6-13.1L1087.1,135.1L1087.1,135.1z"/>
	<path class="st1" d="M1308.3,303.1V106.4c0-7,2.4-13.2,7.2-18.7c4.8-5.5,11.5-8.2,20.1-8.2l89.6-0.4c7.7,0.2,13.5,2.9,17.5,7.9
		s5.9,10.6,5.9,16.6c0,0.2,0,0.4,0,0.5s0,0.3,0,0.5c-0.2,5.8-2.3,11.1-6.1,15.9c-3.9,4.8-9.6,7.2-17.3,7.2l-64.4-0.4v51.1h54.2
		c8.4,0.2,14.7,2.8,18.9,7.7c4.2,4.9,6.3,10.4,6.3,16.4c0,6.1-2.1,11.7-6.3,16.8c-4.2,5.1-10.5,7.7-18.9,7.7h-54.2v76
		c0,8.8-2.5,15.6-7.5,20.2s-11.3,7-18.7,7c-7.5,0-13.7-2.3-18.7-7s-7.5-11.3-7.5-19.9L1308.3,303.1L1308.3,303.1z"/>
	<path class="st1" d="M1462.3,258.9v-91.2c0-8.2,2.4-14.8,7.2-20c4.8-5.1,10.8-7.7,18-7.7c7.5,0,13.5,2.6,18.2,7.7
		c4.7,5.1,7,11.9,7,20.3v89.8c0,10.8,3.3,18.9,10,24.6c6.6,5.6,14.2,8.4,22.6,8.4s15.9-2.8,22.6-8.4c6.6-5.6,10-13.7,10-24.2v-90.5
		c0-8.2,2.4-14.8,7.2-20c4.8-5.1,10.8-7.7,18-7.7c7.5,0,13.5,2.6,18.2,7.7c4.7,5.1,7,11.9,7,20.3v90.8c0,22.7-7.2,40.6-21.5,53.8
		c-14.3,13.2-34.8,19.8-61.4,19.8s-47.1-6.6-61.4-19.8c-14.3-13.2-21.5-31-21.5-53.5v-0.2H1462.3z"/>
	<path class="st1" d="M1656.9,302.4V167.7c0-8.2,2.4-14.8,7.2-20c4.8-5.1,10.8-7.7,18-7.7c6.5,0,11.8,1.6,15.8,4.9
		c4,3.3,6.4,7.8,7.3,13.6c4.9-6.8,11.3-11.9,19.1-15.4c7.8-3.5,17.7-5.3,29.6-5.3c19.8,0,36.3,6,49.3,17.9
		c13.1,11.9,19.6,28.6,19.6,50.1v96.4c0,8.7-2.3,15.5-7,20.5s-10.7,7.5-18.2,7.5c-7.2,0-13.2-2.5-18-7.5s-7.2-11.7-7.2-20.1v-88.2
		c0-11.4-3.2-20-9.6-25.7s-14.2-8.6-23.3-8.6c-10.3,0-18.2,3.3-23.8,10s-8.4,14.9-8.4,24.7v87.5c0,8.6-2.3,15.5-7,20.5
		s-10.7,7.5-18.2,7.5c-7.2,0-13.2-2.5-18-7.5s-7.2-11.7-7.2-20.2L1656.9,302.4L1656.9,302.4z"/>
</g>
</svg>
