<?xml version="1.0" standalone="no"?>
<!DOCTYPE svg PUBLIC "-//W3C//DTD SVG 1.1//EN" "http://www.w3.org/Graphics/SVG/1.1/DTD/svg11.dtd" >
<svg xmlns="http://www.w3.org/2000/svg">
<metadata>Generated by IcoMoon</metadata>
<defs>
<font id="dm-social-font" horiz-adv-x="1024">
<font-face units-per-em="1024" ascent="870.4" descent="-153.6" />
<missing-glyph horiz-adv-x="1024" />
<glyph unicode="&#x20;" horiz-adv-x="0" d="" />
<glyph unicode="&#xe800;" glyph-name="tripadvisor" d="M982.016 457.472c12.288 51.2 50.176 103.424 50.176 103.424h-171.008c-96.256 61.44-212.992 94.208-342.016 94.208-134.144 0-254.976-32.768-350.208-95.232h-160.768s37.888-51.2 50.176-102.4c-31.744-43.008-50.176-94.208-50.176-151.552 0-141.312 114.688-256 256-256 80.896 0 152.576 36.864 199.68 95.232l55.296-80.896 54.272 81.92c24.576-30.72 56.32-56.32 94.208-73.728 62.464-28.672 132.096-31.744 196.608-8.192 132.096 49.152 199.68 197.632 151.552 329.728-9.216 23.552-20.48 45.056-34.816 63.488h1.024zM846.848 113.408c-51.2-19.456-107.52-17.408-156.672 6.144-35.84 15.36-64.512 40.96-84.992 72.704-8.192 13.312-16.384 26.624-21.504 41.984-6.144 16.384-9.216 33.792-11.264 52.224-3.072 34.816 2.048 70.656 17.408 104.448 23.552 49.152 64.512 87.040 115.712 106.496 105.472 38.912 223.232-15.36 263.168-121.856 38.912-105.472-15.36-223.232-121.856-262.144v0zM434.176 191.232c-36.864-54.272-99.328-90.112-169.984-90.112-112.64 0-204.8 92.16-204.8 204.8s92.16 204.8 204.8 204.8 204.8-92.16 204.8-204.8c0-7.168-1.024-13.312-2.048-20.48-3.072-34.816-14.336-67.584-32.768-95.232v1.024zM134.144 307.968c0-69.632 57.344-125.952 126.976-125.952s126.976 56.32 126.976 125.952c0 70.656-57.344 126.976-126.976 126.976s-126.976-56.32-126.976-126.976v0zM648.192 307.968c0-69.632 57.344-125.952 126.976-125.952s126.976 56.32 126.976 125.952c0 70.656-57.344 126.976-126.976 126.976s-126.976-56.32-126.976-126.976v0zM178.176 307.968c0 46.080 36.864 82.944 82.944 82.944 45.056 0 82.944-36.864 82.944-82.944 0-45.056-36.864-82.944-82.944-82.944s-83.968 37.888-83.968 82.944h1.024zM691.2 307.968c0 46.080 37.888 82.944 83.968 82.944 45.056 0 81.92-36.864 81.92-82.944 0-45.056-36.864-82.944-82.944-82.944s-82.944 37.888-82.944 82.944v0zM519.168 611.072c92.16 0 175.104-17.408 247.808-50.176-27.648-1.024-54.272-5.12-80.896-15.36-64.512-23.552-115.712-70.656-144.384-133.12-13.312-28.672-20.48-58.368-22.528-88.064-10.24 131.072-117.76 235.52-250.88 237.568 72.704 31.744 156.672 49.152 248.832 49.152h2.048z" />
<glyph unicode="&#xe813;" glyph-name="tiktok" d="M834.56 578.304c-88.064 19.456-152.576 92.16-160.768 181.248v19.456h-147.456v-583.68c0-68.608-55.296-122.88-123.904-122.88-37.888 0-74.752 18.432-97.28 49.152-41.984 54.272-30.72 131.072 23.552 173.056 31.744 23.552 73.728 30.72 111.616 18.432v149.504c-147.456 20.48-283.648-82.944-304.128-230.4-11.264-82.944 16.384-165.888 73.728-225.28 104.448-106.496 275.456-108.544 381.952-4.096 52.224 50.176 81.92 119.808 81.92 192.512v297.984c59.392-41.984 130.048-65.536 203.776-64.512v145.408c-14.336 0-28.672 2.048-43.008 5.12v-1.024z" />
<glyph unicode="&#xe901;" glyph-name="snapchat" d="M521.216 830.208c41.984 0 185.344-11.264 252.928-162.816 22.528-51.2 17.408-137.216 12.288-206.848v-3.072c0-7.168-1.024-14.336-1.024-21.504 3.072-2.048 8.192-4.096 17.408-4.096 12.288 1.024 27.648 5.12 44.032 13.312 6.144 4.096 14.336 4.096 19.456 4.096 7.168 0 15.36-1.024 21.504-4.096 19.456-6.144 31.744-19.456 31.744-34.816 0-19.456-17.408-35.84-52.224-50.176-4.096-1.024-9.216-3.072-14.336-5.12-19.456-6.144-49.152-15.36-57.344-34.816-3.072-9.216-2.048-22.528 5.12-36.864l1.024-1.024c2.048-5.12 64.512-147.456 204.8-171.008 10.24-2.048 18.432-11.264 17.408-21.504 0-3.072-1.024-6.144-2.048-9.216-10.24-24.576-54.272-43.008-134.144-54.272-2.048-4.096-5.12-16.384-7.168-24.576-1.024-8.192-3.072-15.36-5.12-23.552-4.096-12.288-12.288-17.408-23.552-17.408h-2.048c-5.12 0-13.312 1.024-22.528 3.072-15.36 3.072-32.768 6.144-54.272 6.144-13.312 0-25.6-1.024-38.912-4.096-25.6-4.096-48.128-19.456-73.728-36.864-36.864-25.6-77.824-55.296-140.288-55.296-3.072 0-5.12 1.024-8.192 1.024h-6.144c-62.464 0-103.424 28.672-140.288 54.272-25.6 18.432-47.104 33.792-72.704 37.888-13.312 2.048-26.624 3.072-38.912 3.072-23.552 0-40.96-4.096-54.272-6.144-9.216-2.048-17.408-3.072-23.552-3.072-15.36 0-22.528 9.216-24.576 17.408-3.072 8.192-4.096 17.408-6.144 24.576-2.048 8.192-4.096 21.504-7.168 24.576-81.92 9.216-125.952 27.648-136.192 52.224-1.024 3.072-2.048 6.144-2.048 9.216-1.024 10.24 7.168 20.48 18.432 22.528 139.264 22.528 201.728 164.864 203.776 171.008l1.024 1.024c7.168 15.36 9.216 27.648 5.12 36.864-8.192 19.456-37.888 28.672-57.344 34.816-5.12 1.024-10.24 3.072-14.336 5.12-47.104 18.432-53.248 39.936-51.2 54.272 4.096 20.48 28.672 33.792 50.176 33.792 6.144 0 11.264-1.024 16.384-3.072 17.408-8.192 33.792-12.288 47.104-12.288 9.216 0 16.384 2.048 19.456 4.096l-2.048 24.576c-4.096 68.608-9.216 155.648 13.312 205.824 65.536 150.528 208.896 161.792 250.88 161.792l17.408 1.024h3.072z" />
<glyph unicode="&#xe902;" glyph-name="waze" horiz-adv-x="1152" d="M1143.808 475.904c33.792-196.608-72.704-384-260.096-474.112 29.696-76.8-30.72-161.792-111.616-161.792-63.488 0-114.688 51.2-118.784 110.592-13.312 0-149.504 0-175.104 0 0-29.696-17.408-59.392-38.912-80.896-25.6-21.504-55.296-29.696-89.088-29.696-76.8 4.096-132.096 80.896-106.496 153.6-86.016 29.696-166.912 80.896-230.4 161.792-30.72 38.912 0 94.208 46.080 94.208 107.52 0 72.704 123.904 98.304 251.904 43.008 212.992 269.312 358.4 490.496 358.4 239.616 4.096 456.704-157.696 495.616-384zM848.896 48.896c98.304 43.008 188.416 128 222.208 234.496 94.208 281.6-149.504 521.216-422.912 521.216-191.488 0-392.192-128-430.080-311.296-21.504-111.616 12.288-299.008-158.72-299.008 60.416-76.8 137.216-119.808 218.112-145.408 55.296 51.2 149.504 34.816 183.296-33.792 33.792-4.096 183.296-4.096 204.8 0 17.408 29.696 47.104 55.296 80.896 59.392 38.912 9.216 72.704-4.096 102.4-25.6zM456.704 509.696c0 80.896 119.808 80.896 119.808 0s-119.808-80.896-119.808 0zM730.112 509.696c0 80.896 118.784 80.896 118.784 0s-118.784-80.896-118.784 0zM443.392 347.904c-8.192 37.888 51.2 51.2 60.416 12.288v0c8.192-46.080 67.584-102.4 149.504-97.28s136.192 51.2 148.48 97.28c9.216 38.912 68.608 25.6 60.416-12.288-13.312-51.2-72.704-141.312-214.016-145.408-97.28 0-187.392 64.512-204.8 145.408v0z" />
<glyph unicode="&#xe903;" glyph-name="google-my-business" horiz-adv-x="1138" d="M624.64 478.976v329.728h193.536l39.936-318.464c5.12-33.792-6.144-62.464-28.672-91.136-22.528-22.528-51.2-39.936-84.992-39.936-68.608 0-119.808 51.2-119.808 119.808zM334.848 490.24l39.936 318.464h192.512v-329.728c0-62.464-51.2-113.664-113.664-113.664-33.792 0-62.464 11.264-84.992 39.936-22.528 16.384-33.792 51.2-33.792 84.992zM55.296 478.976l97.28 329.728h164.864l-39.936-352.256c-5.12-57.344-56.32-97.28-107.52-97.28-63.488 0-114.688 51.2-114.688 113.664v6.144zM123.904-79.104v393.216c11.264-6.144 28.672-6.144 46.080-6.144 56.32 0 113.664 28.672 141.312 79.872 6.144-6.144 12.288-11.264 17.408-22.528 33.792-34.816 79.872-57.344 131.072-57.344 56.32 0 113.664 28.672 142.336 79.872 28.672-51.2 79.872-79.872 136.192-79.872 51.2 0 97.28 22.528 131.072 57.344 5.12 5.12 11.264 11.264 17.408 22.528 27.648-51.2 78.848-79.872 136.192-79.872 17.408 0 28.672 0 45.056 6.144v-393.216c0-22.528-16.384-39.936-39.936-39.936h-864.256c-22.528 0-39.936 17.408-39.936 39.936zM880.64 40.704h68.608c-11.264-28.672-39.936-51.2-74.752-51.2-45.056 0-78.848 33.792-78.848 79.872s33.792 79.872 78.848 79.872c23.552 0 39.936-6.144 57.344-23.552h11.264l39.936 39.936v11.264c-28.672 23.552-62.464 39.936-102.4 39.936-79.872 0-147.456-67.584-147.456-147.456s67.584-148.48 147.456-148.48 142.336 68.608 142.336 148.48c0 5.12 0 17.408 0 22.528l-6.144 6.144h-136.192l-6.144-6.144v-51.2h6.144zM914.432 456.448l-45.056 352.256h164.864l102.4-329.728v-6.144c0-62.464-51.2-107.52-113.664-107.52-51.2-6.144-102.4 39.936-108.544 91.136z" />
<glyph unicode="&#xe904;" glyph-name="whatsapp" d="M378.88 563.968c10.24-24.576 37.888-86.016 37.888-92.16 3.072-7.168 6.144-14.336 0-20.48-4.096-7.168-7.168-14.336-14.336-20.48s-13.312-17.408-20.48-20.48c-6.144-7.168-13.312-14.336-6.144-27.648s33.792-54.272 71.68-84.992c47.104-45.056 88.064-55.296 102.4-61.44s20.48-7.168 26.624 3.072c7.168 7.168 30.72 37.888 40.96 48.128 7.168 13.312 17.408 10.24 27.648 6.144s74.752-33.792 84.992-40.96c14.336-6.144 20.48-10.24 24.576-13.312 3.072-7.168 3.072-30.72-7.168-58.368-10.24-30.72-61.44-57.344-84.992-57.344-24.576-4.096-45.056-10.24-153.6 30.72-130.048 51.2-211.968 180.224-215.040 190.464-7.168 7.168-51.2 68.608-51.2 130.048s33.792 92.16 44.032 105.472c10.24 14.336 23.552 17.408 33.792 17.408 7.168 0 17.408 0 24.576 0 13.312-10.24 23.552-10.24 33.792-33.792zM512-57.6c232.448 0 419.84 187.392 419.84 416.768 0 112.64-44.032 215.040-122.88 296.96-78.848 77.824-184.32 122.88-296.96 122.88-232.448 0-422.912-188.416-422.912-416.768 0-78.848 23.552-156.672 64.512-222.208l10.24-16.384-40.96-153.6 156.672 40.96 17.408-10.24c64.512-37.888 140.288-58.368 215.040-58.368v0zM870.4 717.568c95.232-96.256 146.432-222.208 146.432-355.328 0-276.48-228.352-501.76-507.904-501.76v0 0c-86.016 0-167.936 20.48-242.688 61.44l-269.312-68.608 71.68 260.096c-45.056 74.752-68.608 163.84-68.608 251.904 3.072 273.408 232.448 498.688 512 498.688 136.192 0 263.168-51.2 358.4-146.432z" />
<glyph unicode="&#xe905;" glyph-name="google-plus" d="M325.632 399.104v-112.64h185.344c-7.168-47.104-56.32-140.288-185.344-140.288-110.592 0-201.728 92.16-201.728 205.824s91.136 205.824 201.728 205.824c63.488 0 106.496-26.624 130.048-50.176l88.064 84.992c-56.32 53.248-130.048 84.992-218.112 84.992-180.224 0-325.632-145.408-325.632-325.632s145.408-325.632 325.632-325.632c188.416 0 313.344 132.096 313.344 318.464 0 21.504-3.072 37.888-5.12 54.272h-308.224zM1024 399.104h-93.184v92.16h-93.184v-92.16h-93.184v-93.184h93.184v-93.184h93.184v93.184h93.184z" />
<glyph unicode="&#xe9f0;" glyph-name="picassa" d="M703.488 471.808l-363.52 362.496c54.272 19.456 111.616 29.696 172.032 29.696 67.584 0 132.096-13.312 191.488-36.864v-355.328zM766.976 163.584v631.808c151.552-88.064 253.952-251.904 253.952-440.32 0-67.584-12.288-132.096-36.864-191.488h-217.088zM321.536 100.096h631.808c-88.064-152.576-252.928-254.976-441.344-254.976-67.584 0-132.096 13.312-190.464 36.864v218.112zM427.008 640.768l-409.6-408.576c-9.216 38.912-14.336 80.896-14.336 122.88 0 192.512 106.496 359.424 264.192 446.464l159.744-160.768zM257.024 365.312v-451.584c-94.208 54.272-168.96 138.24-211.968 238.592l211.968 212.992z" />
<glyph unicode="&#xea90;" glyph-name="facebook" d="M608.256 672.512h159.744v191.488h-159.744c-123.904 0-224.256-100.352-224.256-224.256v-95.232h-128v-192.512h128v-512h192.512v512h159.744l31.744 192.512h-191.488v95.232c0 17.408 14.336 32.768 31.744 32.768z" />
<glyph unicode="&#xea92;" glyph-name="instagram" d="M512 771.84c137.216 0 152.576-1.024 206.848-3.072 50.176-2.048 76.8-10.24 95.232-17.408 23.552-9.216 40.96-20.48 58.368-37.888 18.432-18.432 29.696-35.84 38.912-59.392 7.168-17.408 15.36-45.056 17.408-95.232 2.048-53.248 3.072-69.632 3.072-206.848s-1.024-152.576-3.072-206.848c-2.048-49.152-10.24-76.8-17.408-94.208-9.216-24.576-20.48-40.96-38.912-59.392-17.408-17.408-34.816-28.672-58.368-37.888-18.432-7.168-45.056-15.36-95.232-17.408-54.272-3.072-69.632-3.072-206.848-3.072s-152.576 0-206.848 3.072c-50.176 2.048-76.8 10.24-94.208 17.408-24.576 9.216-41.984 20.48-59.392 37.888-17.408 18.432-28.672 34.816-37.888 59.392-7.168 17.408-15.36 45.056-18.432 94.208-2.048 54.272-3.072 70.656-3.072 206.848s1.024 153.6 3.072 206.848c3.072 50.176 11.264 76.8 18.432 95.232 9.216 23.552 20.48 40.96 37.888 58.368 17.408 18.432 34.816 29.696 58.368 38.912 18.432 7.168 45.056 15.36 95.232 17.408 54.272 2.048 69.632 3.072 206.848 3.072zM512 864c-139.264 0-156.672-1.024-210.944-3.072s-92.16-11.264-123.904-23.552c-33.792-13.312-62.464-30.72-91.136-59.392s-46.080-57.344-59.392-90.112c-12.288-32.768-21.504-70.656-23.552-124.928s-3.072-71.68-3.072-210.944 1.024-156.672 3.072-210.944c2.048-54.272 11.264-92.16 23.552-123.904 13.312-33.792 30.72-62.464 59.392-91.136s57.344-46.080 91.136-59.392c31.744-12.288 69.632-21.504 123.904-23.552s71.68-3.072 210.944-3.072 156.672 1.024 210.944 3.072c54.272 2.048 92.16 11.264 123.904 23.552 33.792 13.312 62.464 30.72 91.136 59.392s46.080 57.344 58.368 91.136c13.312 31.744 21.504 69.632 24.576 123.904 2.048 54.272 2.048 71.68 2.048 210.944s0 156.672-2.048 210.944c-3.072 54.272-11.264 92.16-24.576 123.904-12.288 33.792-29.696 62.464-58.368 91.136s-57.344 46.080-90.112 59.392c-32.768 12.288-70.656 21.504-124.928 23.552s-71.68 3.072-210.944 3.072v0zM512 615.168c-145.408 0-263.168-117.76-263.168-263.168s117.76-263.168 263.168-263.168 263.168 117.76 263.168 263.168c0 145.408-117.76 263.168-263.168 263.168zM512 180.992c-94.208 0-171.008 76.8-171.008 171.008s76.8 171.008 171.008 171.008c94.208 0 171.008-76.8 171.008-171.008s-76.8-171.008-171.008-171.008zM846.848 625.408c0-33.792-27.648-61.44-61.44-61.44s-61.44 27.648-61.44 61.44c0 33.792 27.648 61.44 61.44 61.44s61.44-27.648 61.44-61.44z" />
<glyph unicode="&#xea96;" glyph-name="twitter" d="M596.009 430.629l372.819 433.371h-88.346l-323.718-376.29-258.553 376.29h-298.21l390.983-569.018-390.983-454.457h88.351l341.855 397.375 273.051-397.375h298.21l-405.458 590.103zM475 289.969l-354.815 507.521h135.702l624.636-893.48h-135.702l-269.821 385.959z" />
<glyph unicode="&#xea9d;" glyph-name="youtube" d="M1013.76 556.8c0 0-10.24 70.656-40.96 101.376-38.912 40.96-81.92 40.96-102.4 44.032-143.36 10.24-358.4 10.24-358.4 10.24v0c0 0-215.040 0-358.4-10.24-19.456-3.072-63.488-3.072-102.4-44.032-30.72-30.72-40.96-101.376-40.96-101.376s-10.24-82.944-10.24-165.888v-77.824c0-82.944 10.24-165.888 10.24-165.888s10.24-70.656 40.96-101.376c38.912-40.96 90.112-38.912 112.64-44.032 81.92-7.168 348.16-10.24 348.16-10.24s215.040 1.024 358.4 11.264c20.48 2.048 63.488 2.048 102.4 43.008 31.744 30.72 40.96 101.376 40.96 101.376s10.24 82.944 10.24 165.888v77.824c0 82.944-10.24 165.888-10.24 165.888zM406.528 218.88v287.744l276.48-144.384-276.48-143.36z" />
<glyph unicode="&#xeaa0;" glyph-name="vimeo" d="M1024 589.568c-5.12-99.328-74.752-235.52-208.896-408.576-139.264-181.248-257.024-271.36-353.28-271.36-60.416 0-110.592 54.272-151.552 164.864-27.648 101.376-55.296 201.728-82.944 303.104-30.72 109.568-63.488 164.864-98.304 164.864-8.192 0-34.816-16.384-80.896-48.128l-48.128 62.464c51.2 44.032 100.352 88.064 149.504 133.12 67.584 58.368 117.76 88.064 151.552 92.16 79.872 7.168 129.024-47.104 147.456-163.84 19.456-125.952 33.792-203.776 41.984-234.496 22.528-104.448 48.128-156.672 75.776-156.672 20.48 0 53.248 33.792 96.256 101.376s65.536 119.808 68.608 154.624c6.144 58.368-16.384 88.064-68.608 88.064-24.576 0-50.176-6.144-75.776-16.384 50.176 163.84 146.432 244.736 288.768 239.616 104.448-3.072 154.624-70.656 148.48-204.8z" />
<glyph unicode="&#xeac6;" glyph-name="reddit" d="M256 224c0 35.84 28.672 64.512 64.512 64.512s63.488-28.672 63.488-64.512c0-34.816-28.672-63.488-63.488-63.488s-64.512 28.672-64.512 63.488zM640 224c0 35.84 28.672 64.512 64.512 64.512s63.488-28.672 63.488-64.512c0-34.816-28.672-63.488-63.488-63.488s-64.512 28.672-64.512 63.488zM643.072 86.784c16.384 13.312 40.96 10.24 53.248-6.144s10.24-39.936-6.144-53.248c-46.080-35.84-115.712-59.392-178.176-59.392s-132.096 23.552-178.176 59.392c-16.384 13.312-19.456 36.864-6.144 53.248s36.864 19.456 53.248 6.144c26.624-20.48 78.848-43.008 131.072-43.008s104.448 22.528 131.072 43.008zM1024 352c0 70.656-57.344 128-128 128-48.128 0-90.112-26.624-111.616-65.536-65.536 35.84-146.432 59.392-233.472 64.512l76.8 171.008 145.408-41.984c13.312-36.864 49.152-63.488 91.136-63.488 53.248 0 96.256 43.008 96.256 95.232s-43.008 96.256-96.256 96.256c-36.864 0-68.608-20.48-84.992-50.176l-162.816 47.104c-18.432 5.12-37.888-4.096-45.056-21.504l-103.424-232.448c-86.016-6.144-163.84-29.696-228.352-64.512-21.504 38.912-63.488 65.536-111.616 65.536-70.656 0-128-57.344-128-128 0-52.224 31.744-97.28 76.8-116.736-8.192-24.576-12.288-49.152-12.288-74.752 0-177.152 199.68-320.512 447.488-320.512s448.512 143.36 448.512 320.512c0 25.6-5.12 50.176-13.312 74.752 45.056 19.456 76.8 64.512 76.8 116.736zM864.256 675.584c19.456 0 35.84-15.36 35.84-35.84s-16.384-35.84-35.84-35.84-35.84 16.384-35.84 35.84 15.36 35.84 35.84 35.84zM64.512 352c0 35.84 28.672 64.512 63.488 64.512 25.6 0 48.128-15.36 58.368-36.864-33.792-25.6-61.44-55.296-81.92-87.040-23.552 9.216-39.936 32.768-39.936 59.392zM512-84.224c-205.824 0-371.712 109.568-371.712 244.736s165.888 243.712 371.712 243.712c205.824 0 371.712-109.568 371.712-243.712s-165.888-244.736-371.712-244.736zM919.552 292.608c-20.48 31.744-48.128 61.44-80.896 87.040 10.24 21.504 31.744 36.864 57.344 36.864 35.84 0 64.512-28.672 64.512-64.512 0-26.624-17.408-50.176-40.96-59.392z" />
<glyph unicode="&#xeace;" glyph-name="email" d="M951.296 4.864v438.272q-18.432-20.48-39.936-37.888-152.576-116.736-243.712-192.512-28.672-24.576-47.104-38.912t-49.152-27.648-58.368-13.312h-2.048q-26.624 0-58.368 13.312t-49.152 27.648-47.104 38.912q-90.112 75.776-243.712 192.512-21.504 17.408-39.936 37.888v-438.272q0-7.168 6.144-13.312t12.288-5.12h841.728q7.168 0 12.288 5.12t6.144 13.312zM951.296 604.928v14.336t-1.024 7.168-1.024 7.168-3.072 5.12-5.12 4.096-8.192 2.048h-841.728q-7.168 0-12.288-6.144t-6.144-12.288q0-96.256 83.968-162.816 110.592-86.016 229.376-180.224 4.096-3.072 20.48-17.408t25.6-21.504 25.6-17.408 28.672-16.384 24.576-5.12h2.048q11.264 0 24.576 5.12t28.672 16.384 25.6 17.408 25.6 21.504 20.48 17.408q118.784 94.208 229.376 180.224 30.72 24.576 57.344 66.56t26.624 74.752zM1024 626.432v-621.568q0-37.888-26.624-64.512t-64.512-27.648h-841.728q-37.888 0-64.512 27.648t-26.624 64.512v621.568q0 37.888 26.624 64.512t64.512 26.624h841.728q37.888 0 64.512-26.624t26.624-64.512z" />
<glyph unicode="&#xead7;" glyph-name="yelp" d="M609.28 210.688c-17.408-17.408-3.072-49.152-3.072-49.152l130.048-217.088c0 0 21.504-28.672 39.936-28.672s36.864 15.36 36.864 15.36l103.424 146.432c0 0 10.24 18.432 10.24 34.816 0 23.552-34.816 29.696-34.816 29.696l-243.712 77.824c0 0-23.552 7.168-38.912-9.216zM596.992 320.256c12.288-21.504 46.080-15.36 46.080-15.36l243.712 71.68c0 0 32.768 13.312 37.888 30.72 4.096 18.432-6.144 39.936-6.144 39.936l-115.712 136.192c0 0-10.24 17.408-30.72 19.456-23.552 2.048-37.888-25.6-37.888-25.6l-137.216-216.064c0 0-12.288-21.504 0-40.96zM482.304 404.224c27.648 7.168 32.768 49.152 32.768 49.152l-2.048 345.088c0 0-4.096 43.008-23.552 54.272-29.696 18.432-38.912 9.216-47.104 8.192l-201.728-75.776c0 0-20.48-6.144-30.72-22.528-14.336-23.552 15.36-57.344 15.36-57.344l209.92-285.696c0 0 20.48-21.504 47.104-15.36zM432.128 263.936c1.024 26.624-31.744 43.008-31.744 43.008l-217.088 109.568c0 0-31.744 13.312-48.128 4.096-11.264-7.168-22.528-19.456-23.552-30.72l-14.336-174.080c0 0-2.048-30.72 6.144-44.032 11.264-19.456 47.104-6.144 47.104-6.144l253.952 56.32c9.216 6.144 26.624 7.168 27.648 41.984zM494.592 170.752c-21.504 11.264-47.104-12.288-47.104-12.288l-169.984-186.368c0 0-20.48-28.672-15.36-46.080 5.12-16.384 13.312-24.576 25.6-30.72l169.984-53.248c0 0 20.48-4.096 35.84 0 22.528 6.144 18.432 40.96 18.432 40.96l4.096 252.928c0 0-1.024 24.576-21.504 34.816z" />
<glyph unicode="&#xf09e;" glyph-name="rss" horiz-adv-x="804" d="M219.136 96q0-46.080-31.744-77.824t-77.824-31.744-77.824 31.744-31.744 77.824 31.744 77.824 77.824 31.744 77.824-31.744 31.744-77.824zM512 25.344q1.024-15.36-9.216-26.624-10.24-12.288-27.648-12.288h-76.8q-14.336 0-24.576 9.216t-11.264 23.552q-12.288 131.072-105.472 224.256t-224.256 105.472q-14.336 1.024-23.552 11.264t-9.216 24.576v76.8q0 16.384 12.288 26.624 9.216 10.24 24.576 10.24h3.072q91.136-7.168 174.080-46.080t148.48-103.424q64.512-64.512 103.424-148.48t46.080-175.104zM804.864 24.32q1.024-15.36-10.24-26.624-10.24-11.264-26.624-11.264h-81.92q-14.336 0-25.6 10.24t-10.24 23.552q-7.168 122.88-58.368 233.472t-132.096 192.512-192.512 132.096-232.448 58.368q-14.336 1.024-24.576 11.264t-10.24 24.576v81.92q0 16.384 11.264 26.624 10.24 10.24 25.6 10.24h1.024q150.528-8.192 286.72-68.608t243.712-167.936q106.496-106.496 167.936-243.712t68.608-286.72z" />
<glyph unicode="&#xf0d2;" glyph-name="pinterest" horiz-adv-x="878" d="M877.568 352q0-119.808-58.368-220.16t-159.744-159.744-220.16-59.392q-63.488 0-124.928 18.432 33.792 53.248 44.032 94.208 6.144 19.456 31.744 120.832 11.264-22.528 40.96-38.912t65.536-16.384q69.632 0 123.904 38.912t83.968 107.52 29.696 154.624q0 65.536-34.816 122.88t-98.304 92.16-145.408 36.864q-60.416 0-112.64-17.408t-88.064-44.032-62.464-62.464-37.888-73.728-12.288-76.8q0-59.392 22.528-104.448t67.584-63.488q16.384-7.168 21.504 11.264 1.024 4.096 4.096 17.408t5.12 17.408q3.072 13.312-6.144 24.576-29.696 34.816-29.696 86.016 0 86.016 59.392 148.48t156.672 62.464q86.016 0 135.168-47.104t48.128-121.856q0-97.28-39.936-164.864t-100.352-68.608q-34.816 0-55.296 25.6t-13.312 59.392q4.096 19.456 15.36 53.248t17.408 58.368 6.144 44.032q0 28.672-15.36 47.104t-44.032 18.432q-35.84 0-60.416-31.744t-24.576-81.92q0-40.96 14.336-69.632l-56.32-238.592q-9.216-39.936-7.168-101.376-117.76 52.224-190.464 160.768t-72.704 241.664q0 119.808 59.392 220.16t158.72 159.744 221.184 59.392 220.16-59.392 159.744-159.744 58.368-220.16z" />
<glyph unicode="&#xf0e1;" glyph-name="linkedin" horiz-adv-x="878" d="M199.68 506.624v-566.272h-188.416v566.272h188.416zM211.968 681.728q0-41.984-29.696-69.632t-76.8-27.648h-1.024q-47.104 0-75.776 27.648t-28.672 69.632 29.696 69.632 76.8 27.648 75.776-27.648 29.696-69.632zM877.568 264.96v-324.608h-187.392v303.104q0 60.416-23.552 94.208t-72.704 33.792q-35.84 0-59.392-19.456t-36.864-49.152q-6.144-17.408-6.144-46.080v-316.416h-188.416q1.024 228.352 1.024 369.664t0 168.96l-1.024 27.648h188.416v-81.92h-1.024q11.264 18.432 23.552 31.744t31.744 29.696 50.176 24.576 65.536 9.216q97.28 0 156.672-64.512t59.392-190.464z" />
<glyph unicode="&#xf180;" glyph-name="foursquare" horiz-adv-x="731" d="M571.392 616.192l21.504 110.592q3.072 13.312-5.12 22.528t-20.48 10.24h-406.528q-13.312 0-22.528-10.24t-8.192-20.48v-629.76q0-4.096 3.072 0l165.888 200.704q13.312 15.36 22.528 19.456t26.624 4.096h137.216q12.288 0 20.48 8.192t11.264 17.408q13.312 73.728 20.48 108.544 2.048 12.288-6.144 23.552t-21.504 10.24h-167.936q-16.384 0-26.624 11.264t-11.264 27.648v23.552q0 16.384 11.264 27.648t26.624 10.24h197.632q10.24 0 20.48 7.168t11.264 17.408zM701.44 743.168q-9.216-41.984-30.72-152.576t-39.936-199.68-19.456-99.328q-4.096-12.288-5.12-18.432t-8.192-18.432-14.336-19.456-21.504-12.288-33.792-5.12h-154.624q-7.168 0-12.288-6.144-5.12-5.12-243.712-281.6-12.288-14.336-33.792-16.384t-27.648 3.072q-30.72 12.288-30.72 55.296v805.888q0 31.744 21.504 59.392t68.608 26.624h506.88q54.272 0 72.704-30.72t6.144-90.112zM701.44 743.168l-90.112-451.584q2.048 9.216 19.456 99.328t39.936 199.68 30.72 152.576z" />
</font>
</defs>
</svg>
