<?xml version="1.0" encoding="utf-8"?>
<!-- Generator: Adobe Illustrator 23.0.3, SVG Export Plug-In . SVG Version: 6.00 Build 0)  -->
<svg version="1.1" id="Capa_1" xmlns="http://www.w3.org/2000/svg" xmlns:xlink="http://www.w3.org/1999/xlink" x="0px" y="0px"
	 viewBox="0 0 512 512" style="enable-background:new 0 0 512 512;" xml:space="preserve">
<style type="text/css">
	.st0{fill:#0086D1;}
</style>
<g>
	<g>
		<g>
			<path class="st0" d="M448,153.7L311.7,257.5L448.2,375c3.2-6,4.9-12.8,4.9-20V174.4C453.3,166.9,451.3,159.8,448,153.7z"/>
		</g>
	</g>
	<g>
		<g>
			<path class="st0" d="M410.2,131.3H102.3c-8.5,0-16.4,2.5-23,6.7l169.9,127.4c4.3,3.1,10,3.1,14.3,0l168.4-128.3
				C425.4,133.4,418.1,131.3,410.2,131.3z"/>
		</g>
	</g>
	<g>
		<g>
			<path class="st0" d="M293,271.8l-15.8,12.1c-6.2,4.6-13.5,6.9-20.8,6.9c-7.3,0-14.6-2.3-20.8-6.9l-0.1-0.1l-15.8-11.9l-139.4,120
				c6.5,3.8,14,6.1,22.1,6.1h307.9c8.1,0,15.7-2.3,22.2-6.2L293,271.8z"/>
		</g>
	</g>
	<g>
		<g>
			<path class="st0" d="M63.7,155.3c-2.8,5.8-4.5,12.3-4.5,19.1V355c0,7.3,1.8,14.2,5,20.2l136.3-117.3L63.7,155.3z"/>
		</g>
	</g>
</g>
</svg>
