<?xml version="1.0" encoding="utf-8"?>
<!-- Generator: Adobe Illustrator 23.0.3, SVG Export Plug-In . SVG Version: 6.00 Build 0)  -->
<svg version="1.1" id="Layer_1" xmlns="http://www.w3.org/2000/svg" xmlns:xlink="http://www.w3.org/1999/xlink" x="0px" y="0px"
	 viewBox="0 0 51 32" style="enable-background:new 0 0 51 32;" xml:space="preserve">
<style type="text/css">
	.st0{fill:#FFFFFF;}
	.st1{fill:#F93232;}
	.st2{fill:#FED049;}
</style>
<g>
	<path class="st0" d="M0,3c0-1.6,1.4-3,3-3h45c1.7,0,3,1.4,3,3v26c0,1.6-1.3,3-3,3H3c-1.6,0-3-1.3-3-3V3z"/>
</g>
<g>
	<g id="Master_Card_1_">
		<g id="Master_Card">
			<circle id="Red_x5F_Circle" class="st1" cx="18.6" cy="16" r="11.5"/>
			<path id="Yellow_x5F_Circle" class="st2" d="M32.4,4.5c-2.6,0-4.9,0.9-6.9,2.3h0v0C25,7.2,24.6,7.6,24.2,8h2.5
				c0.4,0.4,0.7,0.7,1,1.1h-4.5c-0.3,0.4-0.5,0.7-0.8,1.1h6c0.2,0.4,0.4,0.8,0.6,1.1h-7.2c-0.2,0.4-0.3,0.8-0.4,1.1h8.1
				c0.1,0.4,0.2,0.8,0.3,1.1h-8.7c-0.1,0.4-0.1,0.8-0.2,1.1h9c0,0.4,0.1,0.8,0.1,1.1h-9.2c0,0.4,0,0.8,0.1,1.1h9
				c0,0.4-0.1,0.8-0.2,1.1h-8.7c0.1,0.4,0.2,0.8,0.3,1.1h8.1c-0.1,0.4-0.3,0.8-0.4,1.1h-7.2c0.2,0.4,0.4,0.8,0.6,1.1h6
				c-0.2,0.4-0.5,0.8-0.8,1.1h-4.5c0.3,0.4,0.6,0.8,1,1.1h2.5c-0.4,0.4-0.8,0.8-1.3,1.1c1.9,1.4,4.3,2.3,6.9,2.3
				c6.3,0,11.5-5.1,11.5-11.5S38.7,4.5,32.4,4.5z"/>
		</g>
	</g>
</g>
</svg>
