<?xml version="1.0" encoding="utf-8"?>
<!-- Generator: Adobe Illustrator 23.0.3, SVG Export Plug-In . SVG Version: 6.00 Build 0)  -->
<svg version="1.1" id="Layer_1" xmlns="http://www.w3.org/2000/svg" xmlns:xlink="http://www.w3.org/1999/xlink" x="0px" y="0px"
	 viewBox="0 0 150 150" style="enable-background:new 0 0 150 150;" xml:space="preserve">
<style type="text/css">
	.st0{fill:#0086D1;}
</style>
<path class="st0" d="M44.1,106.3c33.8,34.1,61.4,36.7,69.3,36.7c12.7,0,30.6-16.3,30.6-20.5v-8.1c0-2-1.4-3.6-3.2-4.2l-32.7-10.5
	c-1.6-0.6-3.2,0-4.6,1l-11.7,12.3c-1.4,1.4-3.6,1.6-5.2,0.6c-4.9-3-15.7-9.4-28-22.1c-12.3-12.3-19.2-23.1-22.1-28
	c-1-1.6-0.6-3.9,0.6-5.2l12.1-12.1c1.4-1.4,1.6-3,1-4.6L39.9,9.3c-0.6-2-2.2-3.2-4.2-3.2h-8.1C23.7,6.4,7.4,24.6,7.4,37
	C7.4,44.8,10,72.4,44.1,106.3L44.1,106.3z"/>
</svg>
