<?xml version="1.0" encoding="utf-8"?>
<!-- Generator: Adobe Illustrator 23.0.3, SVG Export Plug-In . SVG Version: 6.00 Build 0)  -->
<svg version="1.1" id="Layer_1" xmlns="http://www.w3.org/2000/svg" xmlns:xlink="http://www.w3.org/1999/xlink" x="0px" y="0px"
	 viewBox="0 0 50 50" style="enable-background:new 0 0 50 50;" xml:space="preserve">
<style type="text/css">
	.st0{fill:#0086D1;}
</style>
<path class="st0" d="M25,0C15.6,0,8,7.6,8,17c0,4.1,1.5,8,4.1,11.1l0.1,0.1c4.6,5.3,7.9,10.8,9.9,16.4l1,3.7v0.1
	c0.3,1.1,1,1.6,1.9,1.6s1.6-0.5,1.9-1.6l1-3.8c1.9-5.6,5.3-11.2,9.9-16.4l0.1-0.1C40.5,25,42,21.1,42,17C42,7.6,34.4,0,25,0z M25,23
	c-3.3,0-6-2.7-6-6s2.7-6,6-6s6,2.7,6,6S28.3,23,25,23z"/>
</svg>
