<?xml version="1.0" encoding="utf-8"?>
<!-- Generator: Adobe Illustrator 23.0.3, SVG Export Plug-In . SVG Version: 6.00 Build 0)  -->
<svg version="1.1" id="Layer_1" xmlns="http://www.w3.org/2000/svg" xmlns:xlink="http://www.w3.org/1999/xlink" x="0px" y="0px"
	 viewBox="0 0 51 32" style="enable-background:new 0 0 51 32;" xml:space="preserve">
<style type="text/css">
	.st0{fill:#FFFFFF;}
	.st1{enable-background:new    ;}
	.st2{fill-rule:evenodd;clip-rule:evenodd;fill:#005BAC;}
	.st3{fill-rule:evenodd;clip-rule:evenodd;fill:#F6AC1D;}
</style>
<g>
	<path class="st0" d="M0,3c0-1.6,1.4-3,3-3h45c1.7,0,3,1.4,3,3v26c0,1.6-1.3,3-3,3H3c-1.6,0-3-1.3-3-3V3z"/>
</g>
<g id="形状_1_3_" class="st1">
	<g id="形状_1">
		<g>
			<path class="st2" d="M20.2,9.4l-2.3,14.1h3.7l2.3-14.1L20.2,9.4L20.2,9.4z M14.8,9.4l-3.5,9.7L10.9,17l0,0l-0.1-0.5
				c-0.4-0.9-1.4-2.6-3.3-4.1c-0.5-0.4-1.1-0.8-1.6-1.1l3.2,12.2h3.8l5.8-14.1L14.8,9.4L14.8,9.4z M29.1,13.3c0-1.6,3.6-1.4,5.1-0.5
				l0.5-3c0,0-1.6-0.6-3.3-0.6c-1.8,0-6.1,0.8-6.1,4.7c0,3.6,5.1,3.7,5.1,5.6s-4.5,1.6-6,0.4l-0.5,3.2c0,0,1.6,0.8,4.1,0.8
				c2.5,0,6.3-1.3,6.3-4.8C34.2,15.2,29.1,14.9,29.1,13.3z M44.1,9.4h-2.9c-1.4,0-1.7,1-1.7,1l-5.5,13h3.8l0.8-2.1h4.7l0.4,2.1H47
				L44.1,9.4z M39.6,18.5l1.9-5.3l1.1,5.3H39.6z"/>
		</g>
	</g>
</g>
<g id="形状_1_2_" class="st1">
	<g id="形状_1_1_">
		<g>
			<path class="st3" d="M10.7,9.7c0,0-0.2-1.3-1.8-1.3H3.1L3,8.7c0,0,2.8,0.6,5.5,2.7C11.1,13.5,12,16,12,16L10.7,9.7z"/>
		</g>
	</g>
</g>
</svg>
