<?xml version="1.0" encoding="utf-8"?>
<!-- Generator: Adobe Illustrator 23.0.3, SVG Export Plug-In . SVG Version: 6.00 Build 0)  -->
<svg version="1.1" id="Layer_1" xmlns="http://www.w3.org/2000/svg" xmlns:xlink="http://www.w3.org/1999/xlink" x="0px" y="0px"
	 viewBox="0 0 1200 120" preserveAspectRatio="none">
<style type="text/css">
	.st0{fill:#FFFFFF;}
	.st1{opacity:0.5;fill:#FFFFFF;}
	.st2{fill:#FF5224;}
	.st3{fill:#CDCECD;}
	.st4{fill:#999999;}
	.st5{fill:#FFDB00;}
	.st6{fill:#67F4F4;}
	.st7{fill:#08D7F9;}
	.st8{fill:#FC8686;}
	.st9{fill:#FFAB28;}
	.st10{fill:#FF87A6;}
	.st11{fill:#3BE0FF;}
	.st12{fill:#BF6114;}
	.st13{fill:#FFD491;}
	.st14{fill:#885625;}
	.st15{fill:#72411F;}
	.st16{fill:#221714;}
	.st17{fill:#4A80B3;}
	.st18{fill:#2B6C98;}
	.st19{fill:#EE9467;}
	.st20{fill:#EB8257;}
	.st21{fill:#7294C0;}
	.st22{fill:#3D0800;}
	.st23{fill:#A76745;}
</style>
<path class="st0" d="M0,92.8v27.3h1200V24.3c-67.8-23.1-144.3-15.5-214.3,3c-79,20.8-161.9,61.8-241.8,78.6
	c-82.3,17.3-168.1,16.3-250.5-0.4c-57.8-11.7-114-31.1-172-41.9C213.6,43.9,102.5,54,0,92.8z"/>
<path class="st1" d="M-0.4,78.2L-1,105.5l1199.7,25.1l2-95.8c-67.3-24.5-143.9-18.5-214.4-1.5C907,52.5,823.2,91.8,743,106.9
	c-82.6,15.6-168.4,12.8-250.4-5.6C435,88.3,379.2,67.8,321.5,55.8C214.1,33.7,102.8,41.5-0.4,78.2z"/>
<path class="st1" d="M1.4,101.1l0.4,27.3l1199.9-16.1l-1.3-95.8C1132.3-5.6,1055.9,3,986.1,22.5c-78.7,21.9-161,64-240.7,81.9
	c-82,18.4-167.8,18.6-250.4,3c-58-11-114.4-29.5-172.5-39.6C214.4,49.4,103.4,60.9,1.4,101.1z"/>
<g>
	<g>
		<polygon class="st2" points="1041.8,73.1 1041.5,71.8 1060.3,64.6 1061.7,68.3 		"/>
		<polygon class="st2" points="1042.2,81.8 1042.5,80.4 1060.8,81.8 1060.1,85.4 		"/>
		<polygon class="st2" points="1038.2,66.7 1037.2,65.9 1049.3,53 1052.5,54.8 		"/>
	</g>
	<g>
		<polygon class="st2" points="966.2,96.7 965.6,95.5 946.6,102.2 948,105.9 		"/>
		<polygon class="st2" points="971.6,103.6 970.4,102.7 957.4,115.6 960.2,117.9 		"/>
		<polygon class="st2" points="964.9,89.5 965.1,88.2 947.5,86.3 946.3,89.7 		"/>
	</g>
	<g>
		<g>
			
				<rect x="956.2" y="58.4" transform="matrix(0.5458 -0.8379 0.8379 0.5458 389.0588 842.5907)" class="st3" width="31.1" height="8"/>
			<polygon class="st3" points="987,88.4 994.3,86.9 994.8,89.2 984.5,91.4 961.5,78.1 965.9,71.5 			"/>
			<path class="st3" d="M968.6,78.1c-1.8,2.7-5.5,3.5-8.2,1.7c-2.7-1.8-3.5-5.5-1.7-8.2c1.8-2.7,5.5-3.5,8.2-1.7
				C969.7,71.6,970.4,75.3,968.6,78.1z"/>
			<path class="st4" d="M967.1,77c-1.2,1.9-3.8,2.4-5.7,1.2c-1.9-1.2-2.4-3.8-1.2-5.7c1.2-1.9,3.8-2.4,5.7-1.2
				C967.8,72.6,968.3,75.2,967.1,77z"/>
		</g>
		<g>
			
				<rect x="1012.1" y="32.1" transform="matrix(0.3102 -0.9507 0.9507 0.3102 656.0289 998.448)" class="st3" width="8" height="30"/>
			<polygon class="st3" points="1020,76.8 1013.4,80.1 1014.4,82.3 1023.8,77.5 1033.4,52.8 1025.8,50.3 			"/>
			<path class="st3" d="M1027.8,57.2c3.1,1,6.5-0.7,7.5-3.8c1-3.1-0.7-6.5-3.8-7.5c-3.1-1-6.5,0.7-7.5,3.8
				C1023,52.8,1024.7,56.2,1027.8,57.2z"/>
			<path class="st4" d="M1028.4,55.5c2.2,0.7,4.5-0.5,5.2-2.6c0.7-2.1-0.5-4.5-2.6-5.2c-2.1-0.7-4.5,0.5-5.2,2.6
				C1025,52.5,1026.2,54.8,1028.4,55.5z"/>
		</g>
		<path class="st5" d="M994.7,55.3c9.8-3.1,15.9-11.2,12.4-21.2l-34.8,11.1C975.3,55.4,984.9,58.5,994.7,55.3z"/>
		<g>
			
				<rect x="974.9" y="-13.1" transform="matrix(0.953 -0.3031 0.3031 0.953 44.7387 296.7797)" class="st3" width="7.1" height="34.8"/>
			<rect x="978.1" y="13.3" transform="matrix(0.953 -0.3031 0.3031 0.953 41.8426 298.2216)" class="st4" width="7.1" height="2"/>
			<rect x="976.1" y="7" transform="matrix(0.953 -0.3031 0.3031 0.953 43.6549 297.3193)" class="st4" width="7.1" height="2"/>
			<rect x="974.1" y="0.7" transform="matrix(0.953 -0.3031 0.3031 0.953 45.4672 296.417)" class="st4" width="7.1" height="2"/>
			<rect x="972.1" y="-5.6" transform="matrix(0.953 -0.3031 0.3031 0.953 47.2794 295.5147)" class="st4" width="7.1" height="2"/>
		</g>
		<path class="st5" d="M983.2,19.4c-10.6,3.4-16.9,12.8-12.7,25l37.5-11.9C1004.4,20.1,993.8,16,983.2,19.4z"/>
		<g>
			<path class="st6" d="M990.8,31.2c0.6,1.9-0.4,3.9-2.3,4.5c-1.9,0.6-3.9-0.4-4.5-2.3c-0.6-1.9,0.4-3.9,2.3-4.5
				C988.2,28.3,990.2,29.3,990.8,31.2z"/>
			<path class="st0" d="M988.6,36.2c-2.1,0.7-4.4-0.5-5.1-2.7c-0.7-2.1,0.5-4.4,2.7-5.1c2.1-0.7,4.4,0.5,5.1,2.7
				C991.9,33.2,990.8,35.5,988.6,36.2L988.6,36.2z M986.4,29.3c-1.6,0.5-2.5,2.3-2,3.9c0.5,1.6,2.3,2.5,3.9,2c1.6-0.5,2.5-2.3,2-3.9
				C989.8,29.7,988.1,28.8,986.4,29.3L986.4,29.3z"/>
		</g>
		<g>
			<path class="st6" d="M980.8,34.4c0.6,1.9-0.4,3.9-2.3,4.5c-1.9,0.6-3.9-0.4-4.5-2.3c-0.6-1.9,0.4-3.9,2.3-4.5
				C978.2,31.4,980.2,32.5,980.8,34.4z"/>
			<path class="st0" d="M978.7,39.4c-2.1,0.7-4.4-0.5-5.1-2.7c-0.7-2.1,0.5-4.4,2.7-5.1c2.1-0.7,4.4,0.5,5.1,2.7
				C982,36.4,980.8,38.7,978.7,39.4L978.7,39.4z M976.5,32.5c-1.6,0.5-2.5,2.3-2,3.9c0.5,1.6,2.3,2.5,3.9,2c1.6-0.5,2.5-2.3,2-3.9
				C979.9,32.9,978.1,32,976.5,32.5L976.5,32.5z"/>
		</g>
		<g>
			<path class="st6" d="M1000.8,28c0.6,1.9-0.4,3.9-2.3,4.5c-1.9,0.6-3.9-0.4-4.5-2.3c-0.6-1.9,0.4-3.9,2.3-4.5
				C998.1,25.1,1000.2,26.1,1000.8,28z"/>
			<path class="st0" d="M998.6,33c-2.1,0.7-4.4-0.5-5.1-2.6c-0.7-2.1,0.5-4.4,2.7-5.1c2.1-0.7,4.4,0.5,5.1,2.7
				C1001.9,30,1000.7,32.3,998.6,33L998.6,33z M996.4,26.2c-1.6,0.5-2.5,2.3-2,3.9c0.5,1.6,2.3,2.5,3.9,2c1.6-0.5,2.5-2.3,2-3.9
				C999.8,26.5,998,25.6,996.4,26.2L996.4,26.2z"/>
		</g>
		<g>
			<polygon class="st7" points="1017.2,40.3 988.6,49.4 967.6,56.1 968,43.3 1009.6,30.1 			"/>
			<polygon class="st8" points="967.8,50.9 986.1,45.1 1014.1,36.2 1012.7,34.2 967.8,48.5 			"/>
		</g>
	</g>
	<path class="st9" d="M1020.5,4.6c-0.1-0.1-0.2-0.2-0.2-0.3c0,0-2.7-8.7-3.1-9.9c-0.3-0.9-0.8-1-1.4-0.8c-0.7,0.2-0.9,0.9-0.7,1.5
		l2.5,8.1c-0.6,0-1.3,0.3-1.9,0.7c-1.6,1.2-2.1,3.4-1,5c1,1.6,3.2,1.9,4.8,0.7C1021,8.4,1021.5,6.1,1020.5,4.6z"/>
	<path class="st10" d="M955,28.2c-0.1-0.1-0.2-0.2-0.2-0.3l-3-9.9c-0.1-0.3-0.3-0.6-0.6-0.8c-0.3-0.2-0.6-0.2-0.9,0l-10.6,5.2
		c-0.5,0.2-0.7,0.9-0.6,1.4l2.5,8.1c-0.6,0-1.3,0.3-1.9,0.7c-1.6,1.2-2.1,3.4-1,5c1,1.6,3.2,1.9,4.8,0.7c1.6-1.2,2.1-3.4,1-5
		c-0.1-0.1-0.2-0.2-0.2-0.3l-2.7-8.8L950,20l2.1,6.7c-0.6,0-1.3,0.3-1.9,0.7c-1.6,1.2-2.1,3.4-1,5c1,1.6,3.2,1.9,4.8,0.7
		C955.5,32,956,29.7,955,28.2z"/>
	<path class="st11" d="M1039.1,1.9c-1.5-1-3.8-1.4-5.5-1.1c-0.3-0.2-0.6-0.3-0.9-0.2c-0.5,0.2-0.8,0.7-0.7,1.2c0,0.1,0,0.3,0.1,0.4
		l2.1,6.9c-0.6,0.1-1.7,0.6-2.2,1c-1.6,1.3-2,3.5-1.1,4.9c0.9,1.4,2.9,1.6,4.4,0.5c3-2,1.4-5.4,1.3-5.5l-2.4-7.8
		c2.4,0.3,5.7,1.5,3.6,3.5c-1,1,0.3,1.3,1,0.6C1040.3,5,1041.2,3.2,1039.1,1.9z"/>
	<g>
		<path class="st12" d="M1014.8,90.4c-1.5-3.3-4.2-5.5-5.9-8.3c-2.4,1.9-6.5,3.8-10.4,4.1c0.7,4.3,0.4,7.6,1.6,10.5
			c1.6,3.9,4.2,5.7,9.6,3.5C1014.9,98,1016.9,95.2,1014.8,90.4z"/>
		<path class="st12" d="M998.5,96c-0.6,2.6-6.5,1.8-5.1-2.9c1-3.3,3.4-6.3,4.7-7.5c1.4-1.1,3,0.1,2.4,1.4
			C1000.6,87,999.1,93.3,998.5,96z"/>
		<path class="st12" d="M1018.5,97.4c4.4,1.6-0.5,8.8-4.2,5.4c-2.6-2.3-4.3-5.8-4.7-7.5c-0.4-1.7,2.2-3.2,3.1-2.1
			C1012.8,93.2,1016.7,96.7,1018.5,97.4z"/>
		<path class="st13" d="M1016.9,103c-2.5,0.2-1.3-5.6,1.7-4.7C1021,99,1018.9,102.9,1016.9,103z"/>
		<path class="st12" d="M1015.8,89.1c2.3,1.4,5.9-3.3,1.5-5.7c-3.1-1.6-6.9-2.1-8.6-1.9c-1.8,0.2-2.1,2.2-0.7,2.7
			C1008,84.3,1013.5,87.7,1015.8,89.1z"/>
		<path class="st12" d="M1002,103.9c-2.1,4.2,6.4,6,6.8,1.1c0.3-3.5-0.9-7.1-1.7-8.7c-0.9-1.6-3.8-0.8-3.7,0.7
			C1003.3,97,1002.9,102.2,1002,103.9z"/>
		<path class="st13" d="M1007.1,106.9c1.9-1.6-2.9-5-4.5-2.3C1001.4,106.8,1005.5,108.2,1007.1,106.9z"/>
		<g>
			<g>
				<path class="st12" d="M989.3,75.9c3.8,0.8,5.8-4.5,5.5-6c-0.6-3.2-5-7.4-9.3-5.1C981.2,67.1,980.9,74.2,989.3,75.9z"/>
			</g>
			<g>
				<path class="st12" d="M1008.9,68.4c-2.7,2.8-7.3-0.3-8-1.8c-1.4-2.9-0.2-8.9,4.7-9.5C1010.5,56.5,1014.9,62.1,1008.9,68.4z"/>
			</g>
			<path class="st12" d="M1013,71.6c-2.3-5.8-5.9-13.7-17.7-9.2c-11.9,4.5-8.6,14.6-6.8,19c0.5,3.1,3,8.8,15.1,4.4
				C1014.4,81.9,1016.6,76.7,1013,71.6z"/>
			<path class="st13" d="M1007.2,77.5c0.9,2.6-1,4.7-3.8,5.6c-2.9,1-5.6,0.6-6.5-2c-0.9-2.6-0.5-5.1,3.5-6.5
				C1004.4,73.2,1006.3,74.9,1007.2,77.5z"/>
			<path class="st14" d="M1001.8,80.6C1001.8,80.6,1001.8,80.6,1001.8,80.6c-1.8,0.5-3.3,0.3-4.2-0.6c-0.2-0.2-0.2-0.5,0-0.7
				c0.2-0.2,0.5-0.2,0.7,0c0.6,0.6,1.8,0.8,3.1,0.4c1.6-0.5,2.8-1.6,3-2.6c0.1-0.3,0.3-0.5,0.6-0.4c0.3,0.1,0.5,0.3,0.4,0.6
				C1005.1,78.8,1003.4,80.1,1001.8,80.6L1001.8,80.6z"/>
			<g>
				<path class="st13" d="M1008.1,64.4c-1.5,0.2-3.7-0.9-4.5-1.4c-1.8-1.1,0.8-4.6,3.6-3.9C1010.1,59.9,1010.5,64.2,1008.1,64.4z"/>
			</g>
			<path class="st14" d="M1002.2,80.2c-0.3,0.1-0.5,0-0.6-0.3l-1-2.4c-0.1-0.3,0-0.6,0.3-0.7c0.3-0.1,0.6,0,0.7,0.3l1,2.4
				C1002.6,79.8,1002.5,80.1,1002.2,80.2C1002.2,80.2,1002.2,80.2,1002.2,80.2L1002.2,80.2z"/>
			<path class="st15" d="M1002.6,75.6c0.3,0.8-0.3,1.8-1.4,2.2c-1.1,0.4-2.2,0-2.4-0.9c-0.3-0.9,0.3-1.8,1.4-2.2
				C1001.2,74.3,1002.3,74.7,1002.6,75.6z"/>
			<path class="st16" d="M996.8,75.6c0.3,1-0.3,2-1.3,2.2c-1,0.3-2-0.3-2.2-1.3c-0.3-1,0.3-2,1.3-2.2
				C995.6,74,996.6,74.6,996.8,75.6z"/>
			<path class="st16" d="M1006.9,71.8c0.3,1-0.3,2-1.3,2.2c-1,0.3-2-0.3-2.2-1.3c-0.3-1,0.3-2,1.3-2.2
				C1005.6,70.2,1006.6,70.8,1006.9,71.8z"/>
			<g>
				<path class="st13" d="M987.7,72.2c1.3-0.7,2.6-2.8,2.9-3.7c0.8-2-3.3-3.3-5.2-1.1C983.5,69.7,985.6,73.4,987.7,72.2z"/>
			</g>
		</g>
	</g>
</g>
<g>
	<path class="st17" d="M217.3,49.1c0,0,17.2-15.7,41.4-14.5c24.2,1.2,16.5,20.6,12.8,24.7C267.8,63.4,212.7,65.3,217.3,49.1z"/>
	<path class="st18" d="M226.1,51.5l13.5,5.4c0,0-2.9,3.1-5.6,2.9C231.3,59.6,226.1,53.3,226.1,51.5z"/>
	<path class="st18" d="M239.1,37.6c0,0-6.5,10.4-13.9,8.7C217.9,44.6,232.6,33.9,239.1,37.6z"/>
	<path class="st19" d="M223.8,58.3c0,0,10.2,2.7,19.3-3.3c11.6-11.5,24.9-10.3,21.3,6.3C261.3,63.7,231,62.7,223.8,58.3z"/>
	<path class="st20" d="M239.6,56.9c0,0,4.5,1.5,4.4,5.3l-7.4-0.6l-1.6-3.3L239.6,56.9z"/>
	<path class="st17" d="M266.9,60.9c0,0,25,8.5,36.8,8.8c8.6,0.2,6.5-5.5,4.6-8.9c-0.9-1.5-2.4-2.5-4-2.6c-6-0.6-21.3-1-31.5-3.9
		C266,52.4,264.3,59.4,266.9,60.9z"/>
	<path class="st17" d="M218.2,55.3c0,0,17.2,19.1,27.9,24c7.8,3.5,11.4-2.5,9.9-7c-0.6-1.6-1.2-3.2-2.7-4
		c-5.3-2.9-18.9-10.1-27.2-16.8C220.7,47.1,216.4,52.9,218.2,55.3z"/>
	<path class="st17" d="M212.9,55c0,0-25.2,4.8-36.7,2.2c-8.4-1.9-7.6-8.9-3.6-11.5c1.4-1,2.9-1.8,4.5-1.6c5.9,0.9,21.2,3.4,31.8,3.1
		C215.9,47,215.9,54.1,212.9,55z"/>
	<path class="st18" d="M202.1,47c-2.4-0.3-15.2-1.5-15.2-1.5c0.7,0.1,9.7,3.1,12.2,7.2c2.5,4.1,13.1,2.5,13.1,2.5
		S204.5,47.3,202.1,47z"/>
	<path class="st21" d="M303.7,60.3c0,0-3.1,1.6-2.8,6.3c-5.3-3.3-16.6-9.3-20.3-9.6C290.2,58.4,300.9,57.1,303.7,60.3z"/>
	<path class="st17" d="M298.1,55.8c-6.2-0.5-12.8-3.4-16.9-8.2c-6-6.3-15-6.7-15.1-6.7c-1.4-0.1-2.6-1.3-2.5-2.7
		c0.1-1.4,1.3-2.6,2.7-2.5c0.5,0,11.3,0.5,18.7,8.4l0.1,0.1c5,5.8,15,8.3,20.7,5.2c4.9-2.7,4.3-8.6,3-13.2c-1.7-5.6-4.2-9-7-9.6
		c-1.9-0.4-3.9,0.5-5.5,2.3c-2.1,2.4-2.8,5.9-1.7,8.7c1.3,3.4,3.3,5.3,5,4.7c1.6-0.5,2.7-3,1.7-6.1c-0.4-1.4,0.4-2.8,1.7-3.2
		c1.4-0.4,2.8,0.4,3.2,1.7c1.9,6.4-1.1,11.2-5,12.5c-3.8,1.3-8.9-0.6-11.6-7.8c-1.8-4.7-0.8-10,2.6-13.9c2.8-3.3,6.8-4.8,10.5-4
		c3.4,0.7,8.1,3.6,10.9,13.3c3.7,12.6-2.6,17.6-5.5,19.2C305.4,55.5,301.8,56.1,298.1,55.8z"/>
	<path class="st18" d="M305.9,61.5c-2.4-0.2-3.7,4.6-3.7,4.6l-0.2,0.7c1.4,4.7,6.2,1.1,7.2-0.5C310.3,64.7,308.2,61.7,305.9,61.5z"
		/>
	<path class="st17" d="M241.7,33.3c-1.4,5-6.7,7.9-11.7,6.4c-5-1.4-7.9-6.7-6.4-11.7c1.4-5,6.7-7.9,11.7-6.4
		C240.3,23,243.2,28.3,241.7,33.3z"/>
	<path class="st19" d="M237.8,30.5c-0.9,3-4.1,4.8-7.1,3.9c-3-0.9-4.8-4.1-3.9-7.1c0.9-3,4.1-4.8,7.1-3.9
		C237,24.3,238.7,27.4,237.8,30.5z"/>
	<path class="st20" d="M237.1,27.7c0,0.1,0,0.1,0,0.2c-0.8,2.7-3.6,4.2-6.2,3.4c-1.8-0.5-3-1.9-3.5-3.5c-0.6,2.6,0.9,5.3,3.5,6
		c2.7,0.8,5.5-0.8,6.2-3.4C237.4,29.5,237.4,28.6,237.1,27.7z"/>
	<path class="st17" d="M208.5,30.6c-4.6,2.5-10.3,0.9-12.8-3.7c-2.5-4.6-0.9-10.3,3.7-12.8c4.6-2.5,10.3-0.9,12.8,3.7
		C214.7,22.4,213.1,28.1,208.5,30.6z"/>
	<path class="st19" d="M207.7,25.9c-2.8,1.5-6.3,0.5-7.8-2.3c-1.5-2.8-0.5-6.3,2.3-7.8c2.8-1.5,6.3-0.5,7.8,2.3
		C211.5,20.9,210.5,24.3,207.7,25.9z"/>
	<path class="st17" d="M230.5,42.8c-2.6,8.9-11.9,14.1-20.9,11.5c-8.9-2.6-14.1-11.9-11.5-20.9c2.6-8.9,11.9-14.1,20.9-11.5
		C228,24.5,233.1,33.8,230.5,42.8z"/>
	<path class="st18" d="M225.9,25.8c2.1,4.1,2.7,9.2,1.2,14.2c-2.6,9.1-11.1,14.9-19.4,13.6c0.6,0.3,1.3,0.5,2,0.7
		c8.9,2.6,18.3-2.6,20.9-11.5C232.3,36.5,230.3,30,225.9,25.8z"/>
	<path class="st19" d="M225.2,38.1c1.5-5.3-2.7-11.2-9.4-13.1c-6.7-2-13.5,0.8-15,6.1c-0.6,2,0,4.1,1.3,6.1
		c-3.3,0.7-5.7,2.4-6.4,4.9c-1.3,4.5,6.6,10.6,14,12.8c4.8,1.4,11.6-0.4,12.9-5c0.6-2-0.1-4.3-1.7-6.3
		C222.9,42.2,224.5,40.4,225.2,38.1z"/>
	<path class="st22" d="M219.2,37.8c-0.4,1.5-1.6,2.6-2.5,2.3c-1-0.3-1.4-1.8-0.9-3.3c0.4-1.5,1.6-2.6,2.5-2.3
		C219.2,34.7,219.6,36.2,219.2,37.8z"/>
	<path class="st0" d="M217.5,36.5c-0.5,0.3-1.1,0.3-1.3,0c-0.2-0.3,0-0.8,0.5-1.1c0.5-0.3,1.1-0.3,1.3,0
		C218.3,35.6,218,36.1,217.5,36.5z"/>
	<path class="st22" d="M208.4,34.6c-0.4,1.5-1.6,2.6-2.5,2.3c-1-0.3-1.4-1.8-0.9-3.3c0.4-1.5,1.6-2.6,2.5-2.3
		C208.4,31.6,208.8,33.1,208.4,34.6z"/>
	<path class="st0" d="M206.7,33.3c-0.5,0.3-1.1,0.3-1.3,0c-0.2-0.3,0-0.8,0.5-1.1c0.5-0.3,1.1-0.3,1.3,0
		C207.5,32.5,207.2,33,206.7,33.3z"/>
	<path class="st23" d="M209.5,41.2l1.9,2.8c0.3-2.3-1.7-3.9-1.7-3.9s-2.6,0.3-3.6,2.4l2.9-1.3c-0.7,1.3-2.7,7-1.9,12.1
		C206.5,48.1,209,42.2,209.5,41.2z"/>
	<path class="st18" d="M247.5,79.8c-0.5-0.1-0.9-0.3-1.4-0.5c-9-4.1-22.6-18.2-26.7-22.7c0.6,0.5,13.7,11.2,18.7,9.7
		c0.8,6.1,6.5,6.1,9.6,3.1C246,71.4,242.2,76.8,247.5,79.8z"/>
</g>
</svg>
