<?xml version="1.0" encoding="utf-8"?>
<!-- Generator: Adobe Illustrator 23.0.3, SVG Export Plug-In . SVG Version: 6.00 Build 0)  -->
<svg version="1.1" id="Layer_1" xmlns="http://www.w3.org/2000/svg" xmlns:xlink="http://www.w3.org/1999/xlink" x="0px" y="0px"
	 viewBox="0 0 1343.8 409.9" style="enable-background:new 0 0 1343.8 409.9;" xml:space="preserve">
<style type="text/css">
	.st0{opacity:0.15;}
	.st1{fill:none;stroke:#FFFFFF;stroke-width:10;stroke-miterlimit:10;}
</style>
<g class="st0">
	<path class="st1" d="M91.5,285.9L48.4,100.4c-0.2-0.9-0.5-1.8-0.7-2.6c-0.2-0.8-0.3-1.5-0.3-2.2c-0.2-1.1-0.3-2.2-0.3-3.1
		c0-0.9,0-2,0-3.4c0-0.2,0-0.5,0-0.8s0-0.6,0-0.9c0.5-5.2,2.8-10,7.1-14.3c4.3-4.3,10-6.5,17-6.5c8.1,0,14.3,2.2,18.5,6.6
		c4.2,4.4,7.1,10.3,8.7,17.8l28.8,143.9h0.7l44.1-148.6c1.8-5.9,5.1-10.6,9.8-14.3c4.8-3.6,10.3-5.4,16.6-5.4
		c6.3,0,11.9,1.8,16.6,5.4c4.8,3.6,8,8.5,9.8,14.6L269,235.1h0.7l28.8-144.2c1.6-7.2,4.5-13.1,8.7-17.5c4.2-4.4,10.3-6.6,18.5-6.6
		c7,0,12.7,2.2,17,6.5c4.3,4.3,6.7,9.1,7.1,14.3c0,0.2,0,0.5,0,0.9s0,0.6,0,0.8c0,1.4,0,2.5,0,3.4c0,0.9-0.1,1.9-0.3,3.1
		c0,0.7-0.1,1.4-0.3,2.2c-0.2,0.8-0.5,1.8-0.7,2.9l-43.1,185.2c-1.6,7.3-5.2,13.5-10.9,18.7c-5.7,5.2-13.2,7.8-22.7,7.8
		c-8.4,0-15.6-2.3-21.5-7c-6-4.6-10-10.5-12-17.5l-39.4-131.3h-0.7l-39.4,131c-2,7.2-6.1,13.2-12,17.8c-6,4.6-13.2,7-21.5,7
		c-9.5,0-17-2.6-22.6-7.8c-5.5-5.2-9.2-11.3-11-18.3V285.9z"/>
	<path class="st1" d="M386.7,285.3v-209c0-7.9,2.3-14.4,7-19.3c4.6-5,10.5-7.5,17.5-7.5c7.2,0,13.1,2.5,17.6,7.5
		c4.5,5,6.8,11.5,6.8,19.7v66.2h0.7c3.6-4.3,8.1-7.7,13.4-10.2c5.3-2.5,10.9-4.2,16.8-5.1c2.5-0.5,4.9-0.8,7.3-1
		c2.4-0.2,4.7-0.3,7-0.3c19.2,0,35.2,5.8,47.8,17.3c12.7,11.5,19,27.7,19,48.5v93.3c0,8.4-2.3,15-6.8,19.8
		c-4.5,4.9-10.4,7.3-17.6,7.3c-7,0-12.8-2.4-17.5-7.3c-4.6-4.9-7-11.4-7-19.5v-85.5c0-11.1-3.1-19.4-9.3-24.9
		c-6.2-5.5-13.7-8.3-22.6-8.3c-10,0-17.6,3.2-23.1,9.7s-8.1,14.4-8.1,23.9v84.8c0,8.4-2.3,15-6.8,19.8c-4.5,4.9-10.4,7.3-17.6,7.3
		c-7,0-12.8-2.4-17.5-7.3c-4.6-4.9-7-11.4-7-19.5V285.3z"/>
	<path class="st1" d="M583.5,161.2c-0.7-1.6-1.2-3.4-1.5-5.4c-0.3-2-0.5-4.3-0.5-6.8c0-5,1.7-9.3,5.3-12.9c3.5-3.6,7.5-6.1,12-7.5
		c0.9-0.2,1.8-0.4,2.7-0.5c0.9-0.1,1.8-0.2,2.7-0.2c5.9,0,10.9,1.5,15.1,4.6c4.2,3.1,7.3,7.3,9.3,12.7l33.6,91.6l36-92
		c2-5.2,5.1-9.3,9.3-12.4c4.2-3.1,9.2-4.6,15.1-4.6c0.9,0,1.8,0.1,2.7,0.2c0.9,0.1,1.8,0.3,2.7,0.5c4.5,1.4,8.6,3.9,12.2,7.5
		c3.6,3.6,5.4,7.9,5.4,12.9c0,2.5-0.2,4.8-0.5,6.8c-0.3,2-1,4-1.9,5.8L661.6,365c-2,5.2-4.9,9.7-8.7,13.6c-3.7,3.8-8.5,5.8-14.4,5.8
		c-8.4,0-14.7-2.2-19-6.6c-4.3-4.4-6.4-9.2-6.4-14.4c0-0.7,0.1-1.5,0.2-2.4c0.1-0.9,0.2-1.7,0.2-2.4c0.2-1.6,0.6-3.2,1.2-4.8
		c0.6-1.6,1.1-3.2,1.5-4.8l21.4-52.9L583.5,161.2z"/>
	<path class="st1" d="M889.9,214.2V92.9c0-8.4,2.4-14.8,7.3-19.4c4.9-4.5,10.9-6.8,18.2-6.8c7.2,0,13.3,2.3,18.2,6.8
		c4.9,4.5,7.3,11.1,7.3,19.7v118.3c0,15.9,4.7,29.2,14.1,40.1C964.3,262.5,977,268,993,268c15.4,0,27.9-5.6,37.5-16.8
		c9.6-11.2,14.4-24.3,14.4-39.3v-119c0-8.4,2.4-14.8,7.3-19.4c4.9-4.5,10.9-6.8,18.2-6.8c7.2,0,13.3,2.3,18.2,6.8
		c4.9,4.5,7.3,11.1,7.3,19.7v121c0,28.8-10.1,52.7-30.4,71.7c-20.2,19-44.4,28.5-72.4,28.5c-28.3,0-52.5-9.5-72.8-28.4
		c-20.2-18.9-30.4-42.8-30.4-71.5V214.2z"/>
	<path class="st1" d="M1266.2,161.1c0,5.9-1.9,11-5.6,15.4s-8.5,6.6-14.4,6.6c-2.3,0-5.1-0.7-8.5-2.2c-3.4-1.5-7-3.1-10.9-4.9
		c-2.3-0.9-4.5-1.9-6.8-2.9c-2.3-1-4.5-1.9-6.8-2.5c-1.8-0.5-3.6-0.8-5.4-1.2c-1.8-0.3-3.6-0.5-5.4-0.5c-4.3,0-8.1,1.1-11.5,3.2
		c-3.4,2.2-5.1,5.6-5.1,10.3c0,3.4,1.8,6.3,5.4,8.8c3.6,2.5,8.1,4.9,13.6,7.1c3.6,1.4,7.4,2.8,11.4,4.2c4,1.5,8,3.1,12,4.9
		c10.6,4.5,20.4,10.5,29.2,17.8c8.8,7.4,13.2,18,13.2,32.1c0,16.3-6.3,29.9-19,40.7c-12.7,10.9-29.5,16.3-50.6,16.3
		c-3.4,0-7-0.2-10.7-0.7c-3.7-0.5-7.4-1.1-11-2c-11.8-2.5-22.5-6.8-32.1-12.9c-9.6-6.1-14.4-13.3-14.4-21.7c0-1.1,0.2-2.5,0.5-4.1
		c0.3-1.6,1-3.1,1.9-4.4c1.6-3.4,4-6.4,7.1-9.2c3.2-2.7,7-4.1,11.5-4.1c4.1,0,7.7,0.6,10.9,1.9c3.2,1.2,6.2,2.8,9.2,4.6
		c0.7,0.2,1.3,0.5,1.9,0.8c0.6,0.3,1.2,0.6,1.9,0.8c3.6,2.3,7.6,4.2,11.9,5.9c4.3,1.7,9.3,2.5,14.9,2.5c7.5,0,12.6-1.2,15.3-3.6
		c2.7-2.4,4.1-5.8,4.1-10.3c0-3.4-1.8-6.3-5.3-8.7c-3.5-2.4-8-4.7-13.4-7c-3.4-1.4-7.2-2.8-11.4-4.4c-4.2-1.6-8.3-3.2-12.4-4.8
		c-10.6-4.5-20.4-10.5-29.2-18c-8.8-7.5-13.2-18.2-13.2-32.2c0-17,6.2-30.7,18.7-41.2c12.4-10.5,28.3-15.8,47.5-15.8
		c3.2,0,6.4,0.2,9.8,0.5c3.4,0.3,6.9,1,10.5,1.9c10.2,2,19.5,5.8,28,11.4c8.5,5.5,12.7,12.7,12.7,21.5V161.1z"/>
</g>
</svg>
