<?xml version="1.0" encoding="utf-8"?>
<!-- Generator: Adobe Illustrator 23.0.3, SVG Export Plug-In . SVG Version: 6.00 Build 0)  -->
<svg version="1.1" id="Layer_1" xmlns="http://www.w3.org/2000/svg" xmlns:xlink="http://www.w3.org/1999/xlink" x="0px" y="0px"
	 viewBox="0 0 1461.4 409.9" style="enable-background:new 0 0 1461.4 409.9;" xml:space="preserve">
<style type="text/css">
	.st0{opacity:0.1;}
	.st1{fill:none;stroke:#1A85C7;stroke-width:10;stroke-miterlimit:10;}
</style>
<g class="st0">
	<path class="st1" d="M101.5,289.3L60.3,111.7c-0.2-0.9-0.4-1.7-0.6-2.4c-0.2-0.8-0.3-1.5-0.3-2.1c-0.2-1.1-0.3-2.1-0.3-2.9
		c0-0.9,0-2,0-3.3c0-0.2,0-0.5,0-0.8c0-0.3,0-0.6,0-0.8c0.4-5,2.7-9.5,6.8-13.7c4.1-4.1,9.5-6.2,16.2-6.2c7.8,0,13.7,2.1,17.7,6.3
		c4,4.2,6.8,9.9,8.3,17.1l27.6,137.7h0.6l42.2-142.3c1.7-5.6,4.9-10.2,9.4-13.6c4.5-3.5,9.9-5.2,15.9-5.2c6.1,0,11.4,1.7,15.9,5.2
		c4.5,3.5,7.7,8.1,9.4,14l42.2,142h0.6l27.6-138.1c1.5-6.9,4.3-12.5,8.3-16.7c4-4.2,9.9-6.3,17.7-6.3c6.7,0,12.1,2.1,16.2,6.2
		c4.1,4.1,6.4,8.7,6.8,13.7c0,0.2,0,0.5,0,0.8c0,0.3,0,0.6,0,0.8c0,1.3,0,2.4,0,3.3c0,0.9-0.1,1.8-0.3,2.9c0,0.6-0.1,1.4-0.3,2.1
		c-0.2,0.8-0.4,1.7-0.6,2.8l-41.3,177.3c-1.5,6.9-5,12.9-10.4,17.9c-5.4,5-12.7,7.5-21.8,7.5c-8,0-14.9-2.2-20.6-6.7
		c-5.7-4.4-9.6-10-11.5-16.7l-37.7-125.7h-0.6L165.8,291c-1.9,6.9-5.8,12.6-11.5,17.1c-5.7,4.4-12.6,6.7-20.6,6.7
		c-9.1,0-16.3-2.5-21.6-7.5c-5.3-5-8.8-10.8-10.6-17.6V289.3z"/>
	<path class="st1" d="M384.1,288.7V88.6c0-7.6,2.2-13.8,6.7-18.5c4.4-4.8,10-7.1,16.7-7.1c6.9,0,12.6,2.4,16.9,7.1
		c4.3,4.8,6.5,11,6.5,18.8v63.3h0.6c3.5-4.1,7.7-7.4,12.8-9.7c5.1-2.4,10.4-4,16.1-4.9c2.4-0.4,4.7-0.8,7-1c2.3-0.2,4.5-0.3,6.7-0.3
		c18.4,0,33.7,5.5,45.8,16.6c12.1,11,18.2,26.5,18.2,46.5v89.3c0,8-2.2,14.4-6.5,19c-4.3,4.7-10,7-16.9,7c-6.7,0-12.3-2.3-16.7-7
		c-4.4-4.7-6.7-10.9-6.7-18.7v-81.9c0-10.6-3-18.6-8.9-23.9c-6-5.3-13.2-8-21.6-8c-9.5,0-16.9,3.1-22.1,9.3
		c-5.2,6.2-7.8,13.8-7.8,22.9v81.2c0,8-2.2,14.4-6.5,19c-4.3,4.7-10,7-16.9,7c-6.7,0-12.3-2.3-16.7-7c-4.4-4.7-6.7-10.9-6.7-18.7
		V288.7z"/>
	<path class="st1" d="M572.6,169.9c-0.6-1.5-1.1-3.3-1.5-5.2c-0.3-2-0.5-4.1-0.5-6.5c0-4.8,1.7-8.9,5-12.4c3.4-3.5,7.2-5.9,11.5-7.2
		c0.9-0.2,1.7-0.4,2.6-0.5c0.9-0.1,1.7-0.2,2.6-0.2c5.6,0,10.4,1.5,14.5,4.4c4,2.9,7,7,8.9,12.2l32.2,87.7l34.4-88
		c1.9-5,4.9-8.9,8.9-11.9c4-2.9,8.8-4.4,14.5-4.4c0.9,0,1.7,0.1,2.6,0.2c0.9,0.1,1.7,0.3,2.6,0.5c4.3,1.3,8.2,3.7,11.7,7.2
		c3.5,3.5,5.2,7.6,5.2,12.4c0,2.4-0.2,4.6-0.5,6.5s-0.9,3.8-1.8,5.5l-78.3,194.9c-1.9,5-4.7,9.3-8.3,13c-3.6,3.7-8.2,5.5-13.8,5.5
		c-8,0-14.1-2.1-18.2-6.3c-4.1-4.2-6.2-8.8-6.2-13.8c0-0.6,0.1-1.4,0.2-2.3c0.1-0.9,0.2-1.6,0.2-2.3c0.2-1.5,0.6-3,1.1-4.5
		c0.5-1.5,1-3,1.5-4.5l20.5-50.7L572.6,169.9z"/>
	<path class="st1" d="M865.9,220.7V104.6c0-8,2.3-14.2,7-18.5c4.7-4.3,10.4-6.5,17.4-6.5c6.9,0,12.7,2.2,17.4,6.5
		c4.7,4.3,7,10.6,7,18.9v113.2c0,15.2,4.5,28,13.5,38.4c9,10.4,21.2,15.6,36.5,15.6c14.7,0,26.7-5.4,35.9-16.1
		c9.2-10.7,13.8-23.3,13.8-37.6V104.6c0-8,2.3-14.2,7-18.5c4.7-4.3,10.4-6.5,17.4-6.5c6.9,0,12.7,2.2,17.4,6.5
		c4.7,4.3,7,10.6,7,18.9v115.8c0,27.5-9.7,50.4-29.1,68.6c-19.4,18.2-42.5,27.3-69.4,27.3c-27.1,0-50.3-9.1-69.7-27.2
		c-19.4-18.1-29.1-40.9-29.1-68.5V220.7z"/>
	<path class="st1" d="M1226.2,169.8c0,5.6-1.8,10.6-5.4,14.8c-3.6,4.2-8.2,6.3-13.8,6.3c-2.2,0-4.9-0.7-8.1-2.1
		c-3.2-1.4-6.7-3-10.4-4.7c-2.2-0.9-4.3-1.8-6.5-2.8c-2.2-1-4.3-1.8-6.5-2.4c-1.7-0.4-3.5-0.8-5.2-1.1c-1.7-0.3-3.5-0.5-5.2-0.5
		c-4.1,0-7.8,1-11,3.1c-3.2,2.1-4.9,5.4-4.9,9.9c0,3.2,1.7,6.1,5.2,8.4c3.5,2.4,7.8,4.7,13,6.8c3.5,1.3,7.1,2.7,10.9,4.1
		c3.8,1.4,7.6,3,11.5,4.7c10.2,4.3,19.5,10,27.9,17.1c8.4,7,12.7,17.3,12.7,30.7c0,15.6-6.1,28.6-18.2,39
		c-12.1,10.4-28.3,15.6-48.4,15.6c-3.2,0-6.7-0.2-10.2-0.6c-3.6-0.4-7.1-1.1-10.6-1.9c-11.3-2.4-21.5-6.5-30.7-12.3
		c-9.2-5.8-13.8-12.8-13.8-20.8c0-1.1,0.2-2.4,0.5-3.9c0.3-1.5,0.9-2.9,1.8-4.2c1.5-3.2,3.8-6.2,6.8-8.8c3-2.6,6.7-3.9,11-3.9
		c3.9,0,7.4,0.6,10.4,1.8c3,1.2,6,2.7,8.8,4.4c0.6,0.2,1.2,0.5,1.8,0.8c0.5,0.3,1.1,0.6,1.8,0.8c3.5,2.2,7.3,4.1,11.4,5.7
		c4.1,1.6,8.9,2.4,14.3,2.4c7.1,0,12-1.1,14.6-3.4c2.6-2.3,3.9-5.6,3.9-9.9c0-3.2-1.7-6-5-8.3c-3.4-2.3-7.6-4.5-12.8-6.7
		c-3.2-1.3-6.9-2.7-10.9-4.2c-4-1.5-8-3-11.9-4.5c-10.2-4.3-19.5-10.1-27.9-17.2c-8.4-7.1-12.7-17.4-12.7-30.9
		c0-16.2,6-29.4,17.9-39.5c11.9-10.1,27.1-15.1,45.5-15.1c3,0,6.2,0.2,9.4,0.5c3.2,0.3,6.6,0.9,10.1,1.8c9.7,1.9,18.7,5.6,26.8,10.9
		c8.1,5.3,12.2,12.2,12.2,20.6V169.8z"/>
	<path class="st1" d="M1300.9,224.4v-32.5c0-4.8,2.1-8.2,6.2-10.2c4.1-2.1,9-3.7,14.6-5c0.9-0.4,1.8-0.8,2.8-1
		c1-0.2,1.9-0.4,2.8-0.6c6.5-1.7,12.5-4.4,17.9-8.1c5.4-3.7,8.1-10.2,8.1-19.5c0-7.1-2.8-13-8.3-17.7c-5.5-4.7-11.8-7-18.7-7
		c-6.7,0-12.3,1.7-16.7,5c-4.4,3.4-8.4,7-11.9,10.9c-0.6,0.9-1.2,1.6-1.8,2.3c-0.5,0.6-1.1,1.3-1.8,1.9c-2.8,3.2-5.8,6.1-8.9,8.4
		c-3.1,2.4-6.9,3.6-11.2,3.6c-5.8,0-10.6-2.1-14.3-6.3c-3.7-4.2-5.5-9.9-5.5-17.1c0-13,5.1-23.8,15.4-32.3
		c10.3-8.6,21.6-14.6,33.9-18c3.9-1.1,7.8-1.9,11.7-2.4c3.9-0.5,7.6-0.8,11-0.8c21,0,39.2,6.1,54.6,18.4
		c15.4,12.2,23.1,29.3,23.1,51.2c0,18-5.2,32.3-15.6,43s-23.9,18.2-40.6,22.6v11.4c0,6.7-2.2,12.2-6.5,16.4
		c-4.3,4.2-10,6.3-16.9,6.3c-7.4,0-13.1-2.1-17.2-6.3c-4.1-4.2-6.2-9.6-6.2-16.1V224.4z M1306.4,309.4c-5-4.9-7.5-10.8-7.5-17.7
		c0-6.9,2.5-12.9,7.5-17.9c5-5,10.9-7.5,17.9-7.5c6.9,0,12.9,2.5,17.9,7.5c5,5,7.5,10.9,7.5,17.9c0,6.9-2.5,12.8-7.5,17.7
		c-5,4.9-10.9,7.3-17.9,7.3C1317.4,316.7,1311.4,314.2,1306.4,309.4z"/>
</g>
</svg>
